<svg width="121" height="121" viewBox="0 0 121 121" fill="none" xmlns="http://www.w3.org/2000/svg">
<g clip-path="url(#clip0_181_5676)">
<path d="M115.141 61.0512C115.141 91.0676 90.8078 115.401 60.7914 115.401C30.775 115.401 6.44189 91.0676 6.44189 61.0512C6.44189 31.0348 30.775 6.70166 60.7914 6.70166C90.8078 6.70166 115.141 31.0348 115.141 61.0512Z" fill="url(#paint0_radial_181_5676)"/>
<path fill-rule="evenodd" clip-rule="evenodd" d="M106.854 18.7923C108.291 18.7923 109.455 17.6279 109.455 16.1915C109.455 14.7552 108.291 13.5907 106.854 13.5907C105.418 13.5907 104.254 14.7552 104.254 16.1915C104.254 17.6279 105.418 18.7923 106.854 18.7923ZM106.854 20.211C109.074 20.211 110.874 18.4114 110.874 16.1915C110.874 13.9717 109.074 12.1721 106.854 12.1721C104.635 12.1721 102.835 13.9717 102.835 16.1915C102.835 18.4114 104.635 20.211 106.854 20.211Z" fill="#68DFAD"/>
<path fill-rule="evenodd" clip-rule="evenodd" d="M9.59691 93.3867C8.79712 93.3867 8.14875 94.0351 8.14875 94.8349L8.14875 96.5731L6.41172 96.5731C5.61192 96.5731 4.96356 97.2215 4.96356 98.0213C4.96356 98.8211 5.61192 99.4694 6.41172 99.4694L8.14875 99.4694L8.14875 101.207C8.14875 102.007 8.79712 102.655 9.59691 102.655C10.3967 102.655 11.0451 102.007 11.0451 101.207L11.0451 99.4694L12.7836 99.4694C13.5834 99.4694 14.2318 98.8211 14.2318 98.0213C14.2318 97.2215 13.5834 96.5731 12.7836 96.5731L11.0451 96.5731L11.0451 94.8349C11.0451 94.0351 10.3967 93.3867 9.59691 93.3867Z" fill="#68DFAD"/>
<path d="M105.402 44.0162C105.176 43.6252 104.69 43.4829 104.317 43.6984L103.191 44.3487L102.509 43.1687C102.284 42.7777 101.798 42.6354 101.425 42.8509C101.052 43.0664 100.932 43.5581 101.158 43.9491L101.839 45.1291L100.713 45.7794C100.339 45.9949 100.22 46.4866 100.446 46.8776C100.671 47.2687 101.157 47.411 101.53 47.1955L102.657 46.5451L103.338 47.7252C103.564 48.1162 104.049 48.2585 104.422 48.043C104.796 47.8275 104.915 47.3358 104.69 46.9448L104.008 45.7648L105.135 45.1144C105.508 44.8989 105.627 44.4073 105.402 44.0162Z" fill="#3F9DF3"/>
<path d="M30.2536 54.4884C30.4226 51.5462 32.9447 49.2982 35.8869 49.4672L42.3715 49.3976C45.3137 49.5666 47.5618 52.0887 47.3928 55.0309C47.2237 57.9731 44.7016 60.2211 41.7594 60.0521L35.2748 60.1217C32.3327 59.9527 30.0846 57.4306 30.2536 54.4884Z" fill="url(#paint1_linear_181_5676)"/>
<path d="M24.8519 65.4803C25.021 62.5381 27.5431 60.29 30.4852 60.459L44.1038 60.743C47.046 60.9121 49.2941 63.4342 49.125 66.3763C48.956 69.3185 46.4339 71.5666 43.4917 71.3976L29.8732 71.1136C26.931 70.9445 24.6829 68.4224 24.8519 65.4803Z" fill="url(#paint2_linear_181_5676)"/>
<path d="M83.1171 49.7534C77.6525 45.4827 74.4185 46.5036 72.9234 48.6282C71.5782 54.2732 79.5879 57.4208 79.3897 60.0932C79.2312 62.2311 73.7932 61.7598 71.094 61.257L64.9986 99.7211L106.979 106.374L113.319 66.3711L97.2736 63.8285C93.3672 57.8494 84.3733 50.7351 83.1171 49.7534Z" fill="url(#paint3_linear_181_5676)"/>
<path d="M80.6653 48.7205C78.5293 48.7205 79.908 51.8661 79.908 51.8661L87.8268 54.8118C86.1491 52.1555 82.8013 48.7204 80.6653 48.7205Z" fill="#78B1F3"/>
<path d="M83.0264 83.4376C82.3547 80.8178 81.958 70.6053 81.8987 64.1805C81.8901 63.2504 80.9968 62.5793 80.0913 62.7919C73.4836 64.3435 69.2154 63.4327 68.2312 62.6285L67.4005 100.059L82.4786 102.362C88.4318 101.223 88.8881 95.1601 87.4654 92.3542C86.5139 90.8557 83.7676 86.328 83.0264 83.4376Z" fill="url(#paint4_linear_181_5676)"/>
<path d="M101.025 85.1259C102.239 77.4642 99.596 67.793 97.9942 64.1179L114.247 66.6936C115.939 66.9616 117.351 68.1209 117.728 69.7918C118.478 73.1192 119.358 79.3846 118.084 87.5728C116.696 96.5008 113.907 102.092 112.174 104.86C111.317 106.227 109.71 106.807 108.116 106.554L91.306 103.89C94.609 101.29 99.8109 92.7875 101.025 85.1259Z" fill="url(#paint5_radial_181_5676)"/>
<path d="M98.9122 99.5845C98.538 100.962 99.3515 102.382 100.729 102.756C102.107 103.13 103.527 102.317 103.901 100.939C104.275 99.5618 103.461 98.1418 102.084 97.7677C100.706 97.3935 99.2863 98.207 98.9122 99.5845Z" fill="#E9F0FB"/>
<path d="M30.4455 87.7431C30.6532 85.0601 32.9967 83.0535 35.6797 83.2612L41.6587 83.4243C44.3418 83.632 46.3484 85.9755 46.1406 88.6585C45.9329 91.3415 43.5894 93.3482 40.9064 93.1404L34.9274 92.9774C32.2443 92.7696 30.2377 90.4262 30.4455 87.7431Z" fill="url(#paint6_linear_181_5676)"/>
<path d="M24.9705 76.6623C25.1967 73.7406 27.7487 71.5554 30.6704 71.7817L37.1813 71.9592C40.1031 72.1854 42.2882 74.7374 42.062 77.6591C41.8357 80.5808 39.2838 82.766 36.3621 82.5397L29.8511 82.3622C26.9294 82.136 24.7443 79.584 24.9705 76.6623Z" fill="url(#paint7_linear_181_5676)"/>
<path d="M42.6651 26.5718L75.9501 26.7525C78.6234 26.767 80.7796 28.798 80.7661 31.2888L80.4078 97.2967C80.3957 99.5126 78.458 101.298 76.0798 101.286L41.5847 101.098C39.4713 101.087 37.7667 99.4812 37.7774 97.5121L38.1398 30.7468C38.1524 28.4292 40.1777 26.5606 42.6651 26.5718Z" fill="url(#paint8_radial_181_5676)"/>
<path d="M43.8436 30.7078L75.2473 30.8782C76.7267 30.8863 77.9198 32.0121 77.9123 33.3929L77.5788 94.8283C77.5699 96.475 76.1326 97.802 74.3684 97.7925L43.9321 97.6273C43.1019 97.6227 42.3074 97.3106 41.7233 96.7594C41.1392 96.2083 40.8134 95.4633 40.8176 94.6884L41.1515 33.1891C41.159 31.8083 42.3643 30.6955 43.8436 30.7035L43.8436 30.7078Z" fill="url(#paint9_linear_181_5676)"/>
<path opacity="0.5" d="M40.8788 43.2341C40.8654 39.8667 43.5843 37.1261 46.9516 37.1127L71.6376 37.0142C75.005 37.0008 77.7457 39.7197 77.7591 43.0871L77.7863 49.9181L40.906 50.0651L40.8788 43.2341Z" fill="#71B1F5"/>
<path d="M25.4199 36.821C25.4159 35.8118 26.2308 34.9904 27.24 34.9864L91.7335 34.7292C92.7428 34.7252 93.5642 35.5401 93.5682 36.5493L93.608 46.5242C93.612 47.5335 92.7971 48.3549 91.7879 48.3589L27.2943 48.616C26.2851 48.6201 25.4637 47.8052 25.4597 46.7959L25.4199 36.821Z" fill="white"/>
<path d="M44.4331 44.4152C45.6713 44.4103 46.4881 43.3583 46.483 42.0636L46.4829 42.0507C46.4777 40.756 45.6594 39.7235 44.4279 39.7284C43.1896 39.7333 42.3728 40.7853 42.378 42.08L42.378 42.0929C42.3832 43.3876 43.1949 44.4202 44.4331 44.4152ZM44.4437 43.6966C43.7102 43.6995 43.2362 42.9699 43.2326 42.0766L43.2326 42.0636C43.229 41.1638 43.6905 40.4499 44.4173 40.447C45.1441 40.4441 45.6248 41.1737 45.6283 42.067L45.6284 42.08C45.6319 42.9668 45.1772 43.6937 44.4437 43.6966Z" fill="#1C89EA"/>
<path d="M47.1949 44.0287C47.1957 44.2229 47.3645 44.3712 47.5731 44.3703C47.7212 44.3697 47.8352 44.2787 47.929 44.1682L48.7861 43.0967L49.6517 44.1614C49.7532 44.2904 49.8679 44.3612 50.0294 44.3605C50.2313 44.3597 50.4057 44.2166 50.4048 43.9965C50.4044 43.8929 50.3569 43.8025 50.269 43.6993L49.2685 42.5704L50.2264 41.4596C50.2934 41.3816 50.3402 41.3038 50.3398 41.1937C50.339 40.9995 50.1702 40.8513 49.9548 40.8521C49.8135 40.8527 49.6995 40.9373 49.6057 41.0542L48.7954 42.0609L47.9906 41.0542C47.8892 40.9316 47.7745 40.8608 47.613 40.8615C47.4111 40.8623 47.2367 41.0054 47.2376 41.2255C47.238 41.3291 47.2855 41.4195 47.3734 41.5227L48.313 42.5871L47.3082 43.7564C47.2345 43.8344 47.1945 43.9187 47.1949 44.0287Z" fill="#1C89EA"/>
<path d="M51.0525 44.0134C51.0533 44.2076 51.2221 44.3558 51.4308 44.3549C51.5788 44.3544 51.6928 44.2633 51.7866 44.1528L52.6437 43.0813L53.5094 44.146C53.6108 44.275 53.7255 44.3458 53.887 44.3452C54.0889 44.3443 54.2633 44.2012 54.2624 43.9811C54.262 43.8776 54.2145 43.7871 54.1266 43.6839L53.1262 42.555L54.0841 41.4442C54.151 41.3663 54.1978 41.2884 54.1974 41.1783C54.1966 40.9841 54.0278 40.8359 53.8124 40.8368C53.6711 40.8373 53.5571 40.9219 53.4633 41.0388L52.6531 42.0455L51.8482 41.0388C51.7468 40.9162 51.6321 40.8455 51.4706 40.8461C51.2687 40.8469 51.0943 40.99 51.0952 41.2101C51.0956 41.3137 51.1431 41.4041 51.231 41.5074L52.1706 42.5718L51.1659 43.741C51.0921 43.819 51.0521 43.9033 51.0525 44.0134Z" fill="#1C89EA"/>
<path d="M54.9101 43.998C54.9109 44.1922 55.0797 44.3404 55.2884 44.3396C55.4364 44.339 55.5504 44.2479 55.6442 44.1375L56.5013 43.0659L57.367 44.1306C57.4684 44.2597 57.5831 44.3304 57.7446 44.3298C57.9465 44.329 58.1209 44.1859 58.12 43.9658C58.1196 43.8622 58.0721 43.7717 57.9842 43.6685L56.9838 42.5396L57.9417 41.4288C58.0086 41.3509 58.0554 41.273 58.055 41.163C58.0542 40.9687 57.8854 40.8205 57.6701 40.8214C57.5287 40.822 57.4147 40.9066 57.3209 41.0235L56.5107 42.0301L55.7058 41.0234C55.6044 40.9008 55.4897 40.8301 55.3282 40.8307C55.1263 40.8315 54.9519 40.9746 54.9528 41.1947C54.9532 41.2983 55.0007 41.3888 55.0886 41.492L56.0282 42.5564L55.0235 43.7256C54.9497 43.8036 54.9097 43.8879 54.9101 43.998Z" fill="#1C89EA"/>
<path d="M59.2866 43.9888L62.6411 43.9754L62.6423 44.2549L59.2877 44.2683L59.2866 43.9888Z" fill="#1C89EA"/>
<path opacity="0.5" fill-rule="evenodd" clip-rule="evenodd" d="M34.9899 48.5856C36.8908 47.1789 38.1409 44.9365 38.189 42.3894C38.2519 39.0614 36.2446 36.1758 33.3512 34.9622L31.5088 34.9696C28.1414 34.983 25.4225 37.7237 25.4359 41.091L25.4417 42.5264C25.4551 45.8938 28.1958 48.6127 31.5631 48.5993L34.9899 48.5856Z" fill="#A2DBED"/>
<path d="M36.1832 41.8961C36.1008 46.2524 32.5026 49.7172 28.1463 49.6348C23.79 49.5525 20.3253 45.9543 20.4076 41.598C20.4899 37.2417 24.0881 33.7769 28.4444 33.8593C32.8007 33.9416 36.2655 37.5398 36.1832 41.8961Z" fill="#3289F5"/>
<path d="M31.4484 46.0223C31.4484 46.0223 28.87 48.2784 25.847 43.2744C22.7975 38.2343 26.0066 37.0269 26.0066 37.0269C26.4656 36.7488 27.0578 36.9415 27.2691 37.4314L27.6453 38.311C27.9017 38.9067 27.6774 39.6035 27.1211 39.9405L26.7956 40.133C26.6495 40.2214 26.568 40.3849 26.5924 40.5508C26.6342 40.8629 26.7929 41.4465 27.3492 42.3644C27.9054 43.2823 28.3437 43.6917 28.6011 43.8733C28.7368 43.9717 28.9209 43.9695 29.0669 43.8811L29.3868 43.6873C29.9432 43.3502 30.6591 43.4726 31.0741 43.977L31.6798 44.7176C32.0121 45.1247 31.9074 45.7443 31.4484 46.0223Z" fill="white"/>
<path opacity="0.7" d="M67.2875 58.7503C67.039 55.6708 69.4669 54.3696 72.8794 54.0942L81.9982 52.6799L81.6662 64.6028L74.9113 63.8707C71.4987 64.146 67.536 61.8298 67.2875 58.7503Z" fill="#6CA9F1"/>
<g opacity="0.3">
<path d="M72.9358 61.1738C72.9386 59.7414 71.7726 58.578 70.3314 58.5752L68.048 58.5706C66.6068 58.5678 65.4362 59.7266 65.4333 61.1589L65.4282 63.7523C65.4254 65.1846 66.5914 66.3481 68.0326 66.3509L70.316 66.3555C71.7572 66.3583 72.9278 65.1995 72.9306 63.7672L72.9358 61.1738Z" fill="#76ADFF"/>
<path d="M72.9162 70.8439C72.9191 69.4116 71.7531 68.2482 70.3118 68.2453L68.0285 68.2408C66.5873 68.2379 65.4167 69.3967 65.4138 70.8291L65.4087 73.4225C65.4058 74.8548 66.5719 76.0182 68.0131 76.0211L70.2964 76.0256C71.7376 76.0285 72.9083 74.8697 72.9111 73.4374L72.9162 70.8439Z" fill="#76ADFF"/>
<path d="M72.8977 80.5141C72.9005 79.0818 71.7345 77.9183 70.2933 77.9155L68.0099 77.911C66.5687 77.9081 65.3981 79.0669 65.3953 80.4992L65.3901 83.0927C65.3873 84.525 66.5533 85.6884 67.9945 85.6913L70.2779 85.6958C71.7191 85.6987 72.8897 84.5398 72.8926 83.1075L72.8977 80.5141Z" fill="#76ADFF"/>
<path d="M63.1672 61.1545C63.1701 59.7222 62.004 58.5587 60.5628 58.5559L58.2795 58.5513C56.8383 58.5485 55.6676 59.7073 55.6648 61.1396L55.6596 63.733C55.6568 65.1654 56.8228 66.3288 58.2641 66.3317L60.5474 66.3362C61.9886 66.339 63.1593 65.1802 63.1621 63.7479L63.1672 61.1545Z" fill="#76ADFF"/>
<path d="M63.1482 70.8246C63.151 69.3923 61.985 68.2289 60.5438 68.226L58.2604 68.2215C56.8192 68.2187 55.6486 69.3775 55.6457 70.8098L55.6406 73.4032C55.6378 74.8355 56.8038 75.999 58.245 76.0018L60.5284 76.0063C61.9696 76.0092 63.1402 74.8504 63.143 73.4181L63.1482 70.8246Z" fill="#76ADFF"/>
<path d="M63.1287 80.4946C63.1315 79.0622 61.9655 77.8988 60.5242 77.896L58.2409 77.8914C56.7997 77.8886 55.6291 79.0474 55.6262 80.4797L55.6211 83.0731C55.6182 84.5054 56.7843 85.6689 58.2255 85.6717L60.5088 85.6763C61.95 85.6791 63.1207 84.5203 63.1235 83.088L63.1287 80.4946Z" fill="#76ADFF"/>
<path d="M53.3537 61.1349C53.3566 59.7026 52.1906 58.5392 50.7493 58.5363L48.466 58.5318C47.0248 58.529 45.8541 59.6878 45.8513 61.1201L45.8462 63.7135C45.8433 65.1458 47.0094 66.3093 48.4506 66.3121L50.7339 66.3166C52.1751 66.3195 53.3458 65.1607 53.3486 63.7284L53.3537 61.1349Z" fill="#76ADFF"/>
<path d="M53.3347 70.8051C53.3375 69.3728 52.1715 68.2094 50.7303 68.2065L48.4469 68.202C47.0057 68.1991 45.8351 69.3579 45.8323 70.7902L45.8271 73.3837C45.8243 74.816 46.9903 75.9794 48.4315 75.9823L50.7149 75.9868C52.1561 75.9897 53.3267 74.8309 53.3296 73.3985L53.3347 70.8051Z" fill="#76ADFF"/>
<path d="M53.3152 80.4753C53.318 79.043 52.152 77.8795 50.7108 77.8767L48.4274 77.8721C46.9862 77.8693 45.8156 79.0281 45.8127 80.4604L45.8076 83.0538C45.8048 84.4862 46.9708 85.6496 48.412 85.6525L50.6954 85.657C52.1366 85.6598 53.3072 84.501 53.31 83.0687L53.3152 80.4753Z" fill="#76ADFF"/>
</g>
<g style="mix-blend-mode:multiply" opacity="0.5">
<path d="M72.9358 61.1738C72.9386 59.7414 71.7726 58.578 70.3314 58.5752L68.048 58.5706C66.6068 58.5678 65.4362 59.7266 65.4333 61.1589L65.4282 63.7523C65.4254 65.1846 66.5914 66.3481 68.0326 66.3509L70.316 66.3555C71.7572 66.3583 72.9278 65.1995 72.9306 63.7672L72.9358 61.1738Z" fill="#49ACF1"/>
</g>
<path d="M66.7894 58.5903C66.2106 55.5555 68.4841 54.0002 71.8471 53.3588L80.7605 50.9701C84.1234 50.3287 87.8948 52.7402 88.4736 55.775C89.0525 58.8098 86.7407 62.0453 83.3777 62.6867L74.9205 62.8594C71.5575 63.5009 67.3683 61.6251 66.7894 58.5903Z" fill="url(#paint10_linear_181_5676)"/>
</g>
<defs>
<radialGradient id="paint0_radial_181_5676" cx="0" cy="0" r="1" gradientUnits="userSpaceOnUse" gradientTransform="translate(12.8352 -1.83807) rotate(59.3197) scale(191.532)">
<stop stop-color="white"/>
<stop offset="0.16427" stop-color="#F5F9FF"/>
<stop offset="0.758107" stop-color="#EFF6FF"/>
</radialGradient>
<linearGradient id="paint1_linear_181_5676" x1="37.0499" y1="50.6574" x2="44.5183" y2="65.7293" gradientUnits="userSpaceOnUse">
<stop offset="0.07" stop-color="#C7DEFF"/>
<stop offset="0.08" stop-color="#C2DBFF"/>
<stop offset="1" stop-color="#58A0ED"/>
</linearGradient>
<linearGradient id="paint2_linear_181_5676" x1="31.6482" y1="61.6493" x2="39.1167" y2="76.7212" gradientUnits="userSpaceOnUse">
<stop offset="0.07" stop-color="#C7DEFF"/>
<stop offset="0.08" stop-color="#C2DBFF"/>
<stop offset="1" stop-color="#58A0ED"/>
</linearGradient>
<linearGradient id="paint3_linear_181_5676" x1="82.3214" y1="41.467" x2="135.781" y2="85.63" gradientUnits="userSpaceOnUse">
<stop offset="0.07" stop-color="#C7DEFF"/>
<stop offset="0.08" stop-color="#C2DBFF"/>
<stop offset="1" stop-color="#58A0ED"/>
</linearGradient>
<linearGradient id="paint4_linear_181_5676" x1="70.3915" y1="62.1459" x2="81.0656" y2="110.198" gradientUnits="userSpaceOnUse">
<stop stop-color="#599EEE"/>
<stop offset="1" stop-color="#72ADF1" stop-opacity="0"/>
</linearGradient>
<radialGradient id="paint5_radial_181_5676" cx="0" cy="0" r="1" gradientUnits="userSpaceOnUse" gradientTransform="translate(101.492 68.0051) rotate(75.8469) scale(46.1142 23.1191)">
<stop offset="0.160179" stop-color="#49ACF1"/>
<stop offset="0.652044" stop-color="#2F84F6"/>
</radialGradient>
<linearGradient id="paint6_linear_181_5676" x1="36.7198" y1="84.3691" x2="43.2645" y2="98.2649" gradientUnits="userSpaceOnUse">
<stop offset="0.07" stop-color="#C7DEFF"/>
<stop offset="0.08" stop-color="#C2DBFF"/>
<stop offset="1" stop-color="#58A0ED"/>
</linearGradient>
<linearGradient id="paint7_linear_181_5676" x1="31.803" y1="72.9881" x2="38.93" y2="88.1201" gradientUnits="userSpaceOnUse">
<stop offset="0.07" stop-color="#C7DEFF"/>
<stop offset="0.08" stop-color="#C2DBFF"/>
<stop offset="1" stop-color="#58A0ED"/>
</linearGradient>
<radialGradient id="paint8_radial_181_5676" cx="0" cy="0" r="1" gradientUnits="userSpaceOnUse" gradientTransform="translate(47.7912 32.6833) rotate(63.5986) scale(87.718 48.8369)">
<stop offset="0.160179" stop-color="#49ACF1"/>
<stop offset="0.652044" stop-color="#2F84F6"/>
</radialGradient>
<linearGradient id="paint9_linear_181_5676" x1="55.6959" y1="120.89" x2="60.2648" y2="-58.4627" gradientUnits="userSpaceOnUse">
<stop stop-color="#ABDBFE"/>
<stop offset="0.696186" stop-color="#F3F7FF"/>
</linearGradient>
<linearGradient id="paint10_linear_181_5676" x1="87.1496" y1="58.7713" x2="74.3926" y2="49.9997" gradientUnits="userSpaceOnUse">
<stop offset="0.171875" stop-color="#B9D6FE"/>
<stop offset="0.348958" stop-color="#C3DCFE"/>
<stop offset="1" stop-color="#EAF4FF"/>
</linearGradient>
<clipPath id="clip0_181_5676">
<rect width="120" height="120" fill="white" transform="translate(0.5 0.293945)"/>
</clipPath>
</defs>
</svg>
