<svg width="181" height="181" viewBox="0 0 181 181" fill="none" xmlns="http://www.w3.org/2000/svg">
<ellipse cx="79.7002" cy="130.194" rx="57" ry="3.3" fill="#E9EEF4"/>
<path d="M52.2223 46.4939H45.4753C43.5814 46.4939 42.1758 48.2498 42.5905 50.0978L60.379 129.366H69.0251L72.7772 124.472L52.2223 46.4939Z" fill="url(#paint0_linear_354_5520)"/>
<path d="M120.086 46.4939H113.339C111.445 46.4939 110.039 48.2498 110.454 50.0978L128.242 129.366H136.888L140.64 124.472L120.086 46.4939Z" fill="url(#paint1_linear_354_5520)"/>
<path d="M68.5357 108.485H129.548L127.59 116.641H66.5781L68.5357 108.485Z" fill="url(#paint2_linear_354_5520)"/>
<path d="M40.8745 48.6969C41.2168 47.3986 42.3908 46.4939 43.7334 46.4939H51.8958L33.2986 129.366L20.9004 124.472L40.8745 48.6969Z" fill="#E9F0FB"/>
<path d="M46.6761 53.3455H107.688L99.8577 87.9298H38.8457L46.6761 53.3455Z" fill="url(#paint3_linear_354_5520)"/>
<path d="M74.8574 53.3455H94.075L110.89 70.6155L108.488 87.8855L74.8574 53.3455Z" fill="white"/>
<path d="M46.7698 53.3455H60.0743L93.705 87.8855H74.4875L45.6611 58.2797L46.7698 53.3455Z" fill="white"/>
<path d="M42.3349 71.6245L58.2263 87.8855H39.0088L42.3349 71.6245Z" fill="white"/>
<path d="M33.9508 108.811H94.9628L93.0052 116.968H31.9932L33.9508 108.811Z" fill="url(#paint4_linear_354_5520)"/>
<path d="M41.1296 90.2138H102.142L99.8577 87.9299H38.8457L41.1296 90.2138Z" fill="url(#paint5_linear_354_5520)"/>
<path d="M34.277 118.925H95.2891L93.0052 116.968H31.9932L34.277 118.925Z" fill="url(#paint6_linear_354_5520)"/>
<path d="M20.9004 124.472H31.341L33.2986 129.366H22.858L20.9004 124.472Z" fill="url(#paint7_linear_354_5520)"/>
<path d="M108.738 48.6969C109.08 47.3986 110.254 46.4939 111.597 46.4939H119.759L101.162 129.366L88.7637 124.472L108.738 48.6969Z" fill="#E9F0FB"/>
<path d="M88.7637 124.472H99.2042L101.162 129.366H90.7213L88.7637 124.472Z" fill="url(#paint8_linear_354_5520)"/>
<path d="M101.3 136.506L133.7 141.998V147.489L101.3 141.998V136.506Z" fill="#B4D4FF"/>
<path fill-rule="evenodd" clip-rule="evenodd" d="M137.344 83.094L130.056 83.094L112.753 134.565L101.3 136.506L133.7 141.998L166.1 136.506L154.647 134.565L137.344 83.094Z" fill="url(#paint9_linear_354_5520)"/>
<path d="M166.1 136.506L133.7 141.998V147.489L166.1 141.998V136.506Z" fill="url(#paint10_linear_354_5520)"/>
<path d="M125.535 96.5408L121.848 107.51C125.155 108.074 129.164 108.499 133.496 108.499C137.778 108.499 142.007 108.15 145.604 107.665L141.843 96.4785C139.389 96.6753 136.557 96.8175 133.496 96.8175C130.356 96.8175 127.715 96.7046 125.535 96.5408Z" fill="url(#paint11_linear_354_5520)"/>
<path d="M118.784 116.626L114.531 129.275C116.518 129.846 123.32 131.564 133.232 131.564C143.195 131.564 150.44 130.227 153.003 129.675L148.595 116.563C145.798 117.077 140.098 117.935 133.232 117.935C125.638 117.935 121.003 117.144 118.784 116.626Z" fill="url(#paint12_linear_354_5520)"/>
<path style="mix-blend-mode:multiply" opacity="0.73" d="M102.999 124.14C102.999 124.14 115.736 140.5 114.731 142.538C113.725 144.577 114.833 146.285 100.395 149.617C86.1645 152.898 79.4397 149.683 79.4397 149.683L102.999 124.14Z" fill="url(#paint13_linear_354_5520)"/>
<path d="M99.1674 113.315C100.41 112.774 101.867 113.257 102.523 114.427C110.332 128.182 106.53 141.919 105.151 145.655C104.904 146.328 103.44 148 102.775 148.285C98.3975 150.125 81.2113 153.665 67.4756 150.153C65.931 149.742 65.3796 147.827 66.1829 146.473C70.1515 139.779 67.1904 128 65.3986 122.344C65.1815 121.644 65.3297 120.885 65.7945 120.314C66.2593 119.743 66.9809 119.435 67.7228 119.49C81.3776 120.382 94.2578 115.468 99.1674 113.315Z" fill="url(#paint14_linear_354_5520)"/>
<path opacity="0.52" d="M84.9644 146.132C89.0231 145.728 96.5857 144.863 101.04 143.658C101.616 143.497 102.059 143.021 102.194 142.419C102.768 139.8 102.29 139.585 102.29 139.585L91.2576 130.657C90.8653 130.342 90.3554 130.231 89.8736 130.355C89.3918 130.478 88.9913 130.824 88.7866 131.292L83.3379 143.788C83.1064 144.331 83.1695 144.96 83.5038 145.442C83.8381 145.924 84.3938 146.187 84.9644 146.132Z" fill="#F0F5FF"/>
<path d="M91.7773 143.51L77.8789 129.377C77.5007 128.994 76.9557 128.842 76.4412 128.976C75.9267 129.109 75.5172 129.509 75.361 130.029L70.8604 145.184C70.746 145.573 70.8196 145.996 71.0584 146.321C71.2973 146.646 71.6728 146.834 72.0691 146.828C76.0156 146.754 85.8577 146.499 91.1037 145.674C91.5661 145.6 91.948 145.264 92.0906 144.806C92.2332 144.348 92.1119 143.846 91.7773 143.51Z" fill="#F0F5FF"/>
<path d="M95.2477 126.175C93.9169 126.175 92.8381 125.096 92.8381 123.765C92.8381 122.434 93.9169 121.355 95.2477 121.355C96.5784 121.355 97.6572 122.434 97.6572 123.765C97.6572 125.096 96.5784 126.175 95.2477 126.175Z" fill="#F0F5FF"/>
<defs>
<linearGradient id="paint0_linear_354_5520" x1="62.9493" y1="27.3696" x2="30.1049" y2="77.5961" gradientUnits="userSpaceOnUse">
<stop stop-color="#D3DCE9"/>
<stop offset="1" stop-color="#CFD9E8"/>
</linearGradient>
<linearGradient id="paint1_linear_354_5520" x1="130.813" y1="27.3696" x2="97.9682" y2="77.5961" gradientUnits="userSpaceOnUse">
<stop stop-color="#D1DAE7"/>
<stop offset="1" stop-color="#C1CBD9"/>
</linearGradient>
<linearGradient id="paint2_linear_354_5520" x1="86.5448" y1="106.602" x2="95.773" y2="123.818" gradientUnits="userSpaceOnUse">
<stop stop-color="#D3DCE9"/>
<stop offset="1" stop-color="#C4CDDC"/>
</linearGradient>
<linearGradient id="paint3_linear_354_5520" x1="78.9229" y1="70.8854" x2="74.2812" y2="111.324" gradientUnits="userSpaceOnUse">
<stop stop-color="#DCE6F7"/>
<stop offset="1" stop-color="#F9FBFE"/>
</linearGradient>
<linearGradient id="paint4_linear_354_5520" x1="54.2542" y1="108.811" x2="54.8734" y2="123.071" gradientUnits="userSpaceOnUse">
<stop stop-color="#DCE6F7"/>
<stop offset="1" stop-color="#F9FBFE"/>
</linearGradient>
<linearGradient id="paint5_linear_354_5520" x1="58.9158" y1="87.4029" x2="58.9332" y2="89.3788" gradientUnits="userSpaceOnUse">
<stop stop-color="#D3DCE9"/>
<stop offset="1" stop-color="#CFD9E8"/>
</linearGradient>
<linearGradient id="paint6_linear_354_5520" x1="52.0633" y1="116.516" x2="52.0761" y2="118.21" gradientUnits="userSpaceOnUse">
<stop stop-color="#D3DCE9"/>
<stop offset="1" stop-color="#CFD9E8"/>
</linearGradient>
<linearGradient id="paint7_linear_354_5520" x1="24.8316" y1="123.343" x2="25.2367" y2="127.538" gradientUnits="userSpaceOnUse">
<stop stop-color="#D3DCE9"/>
<stop offset="1" stop-color="#CFD9E8"/>
</linearGradient>
<linearGradient id="paint8_linear_354_5520" x1="92.6949" y1="123.343" x2="93.1" y2="127.538" gradientUnits="userSpaceOnUse">
<stop stop-color="#D3DCE9"/>
<stop offset="1" stop-color="#CFD9E8"/>
</linearGradient>
<linearGradient id="paint9_linear_354_5520" x1="155.532" y1="7.8231" x2="149.272" y2="129.787" gradientUnits="userSpaceOnUse">
<stop stop-color="#C7DEFF"/>
<stop offset="0.99" stop-color="#6EACFB"/>
</linearGradient>
<linearGradient id="paint10_linear_354_5520" x1="151.467" y1="147.176" x2="152.024" y2="135.591" gradientUnits="userSpaceOnUse">
<stop stop-color="#52A1F7"/>
<stop offset="1" stop-color="#52A1F7"/>
</linearGradient>
<linearGradient id="paint11_linear_354_5520" x1="139.4" y1="134.694" x2="147.573" y2="94.1607" gradientUnits="userSpaceOnUse">
<stop stop-color="#EAF2FF"/>
<stop offset="1" stop-color="#F9FBFE"/>
</linearGradient>
<linearGradient id="paint12_linear_354_5520" x1="139.4" y1="134.694" x2="147.573" y2="94.1607" gradientUnits="userSpaceOnUse">
<stop stop-color="#EAF2FF"/>
<stop offset="1" stop-color="#F9FBFE"/>
</linearGradient>
<linearGradient id="paint13_linear_354_5520" x1="99.2921" y1="144.378" x2="123.047" y2="124.765" gradientUnits="userSpaceOnUse">
<stop offset="0.09" stop-color="#83BCFF"/>
<stop offset="0.45" stop-color="#F0F5FF" stop-opacity="0"/>
</linearGradient>
<linearGradient id="paint14_linear_354_5520" x1="72.1491" y1="63.8285" x2="76.2869" y2="143.651" gradientUnits="userSpaceOnUse">
<stop stop-color="#C7DEFF"/>
<stop offset="0.99" stop-color="#6EACFB"/>
</linearGradient>
</defs>
</svg>
