<svg width="121" height="121" viewBox="0 0 121 121" fill="none" xmlns="http://www.w3.org/2000/svg">
<path fill-rule="evenodd" clip-rule="evenodd" d="M80.0445 24.8608C79.3012 28.9509 70.0842 30.6092 67.9313 27.4707C67.2535 26.4823 66.3203 25.7008 65.2334 25.2113C62.2162 26.3243 58.0041 29.5909 56.1596 31.3939C56.2034 32.6411 56.5988 33.8497 57.2993 34.8775C59.6284 38.2943 54.7391 46.1407 50.571 45.3672C49.3185 45.1947 48.0432 45.3479 46.8655 45.8123C45.9846 47.9325 44.966 52.8686 44.8999 56.4746C45.8162 57.3804 46.9805 57.9872 48.242 58.2164C52.6468 59.04 54.0013 68.2331 50.7582 70.4924C49.726 71.2293 48.9206 72.2459 48.4347 73.425C49.3102 75.6844 52.5972 80.4868 54.4252 82.39C55.598 82.1507 56.9635 82.0116 58.0812 81.2381C61.3242 78.9787 69.3078 83.7367 68.5425 88.0661C68.2925 89.4358 68.4855 90.8505 69.0931 92.1006C71.3285 92.9075 77.1263 93.937 79.4333 93.8925C80.0335 93.5642 81.0025 91.7946 81.2503 90.4256C82.3515 84.5325 90.693 83.8146 93.4074 87.799C94.0979 88.9275 95.1607 89.7731 96.4082 90.1863C98.5775 89.3071 103.241 86.0906 105.179 84.0984C105.191 82.7748 104.793 81.4806 104.039 80.3978C101.611 76.8363 106.038 68.9676 110.801 69.8524C112.057 69.999 113.329 69.8738 114.534 69.4851C115.497 66.5803 116.736 61.3661 116.461 58.5614C115.524 57.7472 114.379 57.2151 113.157 57.0255C108.989 56.2464 106.969 47.2314 110.492 44.7829C111.493 44.1221 112.309 43.2142 112.866 42.1451C111.797 39.2625 108.521 34.3098 106.572 32.6849C105.33 32.7795 104.144 33.2443 103.164 34.0205C99.3594 36.6749 91.9484 31.7945 92.7798 27.2258C92.9632 25.9891 92.8422 24.7257 92.4274 23.5475C89.9166 22.7628 85.4403 21.4829 81.8064 21.494C80.8705 22.3913 80.2516 23.574 80.0445 24.8608ZM83.816 38.272C91.3617 39.6739 97.3287 45.5319 98.9346 53.1142C100.54 60.6965 97.4689 68.5099 91.1523 72.9108C84.8357 77.3118 76.518 77.4335 70.0779 73.2193C63.6378 69.0051 60.3437 61.2849 61.7316 53.6588C63.6266 43.2465 73.5138 36.3579 83.816 38.272Z" fill="url(#paint0_linear_181_10661)"/>
<path fill-rule="evenodd" clip-rule="evenodd" d="M15.0008 23.2838C16.8136 24.8205 15.0031 29.8524 12.8346 30.0198C12.1517 30.0725 11.4984 30.3106 10.9458 30.7082C10.6354 32.5184 11.05 35.535 11.416 36.9624C12.046 37.2973 12.7573 37.4472 13.4661 37.3946C15.8226 37.2195 18.3113 41.8801 16.7384 43.7201C16.2954 44.2902 16.0071 44.9646 15.9008 45.6797C16.699 46.7214 18.8519 48.636 20.6183 49.6994C21.3284 49.5052 21.9612 49.1029 22.4348 48.5446C24.1002 46.6018 29.0382 48.5597 29.2309 50.8092C29.301 51.5303 29.5743 52.2191 30.0194 52.7964C31.3879 53.0093 34.7039 52.7565 36.1681 52.3966C36.3844 51.7482 36.7054 51.0332 36.6416 50.2594C36.4489 48.0099 41.0838 45.422 43.0088 47.0379C43.6155 47.5531 44.371 47.862 45.1634 47.9188C46.2011 47.0441 48.366 44.4713 49.0026 43.3177C49.0114 42.9271 48.412 41.9421 47.805 41.4283C45.2018 39.1992 47.2279 34.8691 49.9755 34.6657C50.7314 34.6468 51.4534 34.3629 52.0142 33.8642C52.1982 32.5401 51.9373 29.3145 51.5043 27.7867C50.8525 27.4024 50.098 27.2296 49.3468 27.2925C46.8904 27.4753 44.2586 23.037 46.0564 20.9348C46.4875 20.3555 46.7889 19.6905 46.9404 18.9838C45.7773 17.677 43.5495 15.574 42.0824 14.9084C41.4117 15.1392 40.8215 15.5531 40.3788 16.1031C38.8031 17.9415 33.7631 16.3639 33.5569 13.9215C33.5153 13.238 33.2991 12.5746 32.9285 11.994C31.1965 11.6983 27.8091 11.9027 26.4482 12.4021C26.1405 13.0432 26.032 13.7626 26.1364 14.4692C26.3643 17.1093 21.8322 19.3792 19.8077 17.6621C19.2478 17.2179 18.5878 16.9166 17.886 16.785C16.7807 17.8023 14.8691 19.65 13.837 21.4502C14.0141 22.1694 14.4229 22.8136 15.0008 23.2838ZM22.7173 25.2521C25.5657 21.9215 30.1694 20.6452 34.3818 22.0183C38.5941 23.3915 41.5854 27.1437 41.9608 31.5253C42.3362 35.9069 40.0218 40.0548 36.0967 42.0349C32.1717 44.015 27.4091 43.4373 24.0298 40.5711C19.4159 36.6578 18.8283 29.7996 22.7173 25.2521Z" fill="url(#paint1_linear_181_10661)"/>
<path d="M96.5 106.094C96.5 107.088 78.86 107.894 57.1 107.894C35.3399 107.894 17.7 107.088 17.7 106.094C17.7 105.1 35.3399 104.294 57.1 104.294C78.86 104.294 96.5 105.1 96.5 106.094Z" fill="#CCE1FF"/>
<path d="M24.9 47.8938H96.5C96.5 47.8938 96.9 48.2938 96.9 49.6938C96.9 51.0938 96.5 51.4938 96.5 51.4938H24.9C24.9 51.4938 24.5 51.0938 24.5 49.6938C24.5 48.2938 24.9 47.8938 24.9 47.8938Z" fill="#A1C4FA"/>
<path d="M87.2047 47.0501C87.2274 46.1838 87.9042 45.4939 88.7314 45.4939H90.2685C91.0957 45.4939 91.7725 46.1838 91.7952 47.0501L93.3 74.6939H85.7L87.2047 47.0501Z" fill="url(#paint2_linear_181_10661)"/>
<path d="M29.6049 47.0501C29.6275 46.1838 30.3044 45.4939 31.1316 45.4939H32.6686C33.4958 45.4939 34.1727 46.1838 34.1953 47.0501L35.7001 74.6939H28.1001L29.6049 47.0501Z" fill="url(#paint3_linear_181_10661)"/>
<path fill-rule="evenodd" clip-rule="evenodd" d="M81.822 34.6022C76.9169 34.4348 72.18 37.2289 70.1041 42.0027C68.173 46.4435 69.0652 51.4002 71.9903 54.8661L62.9663 75.6182C61.7647 78.3816 63.0307 81.596 65.7942 82.7977C68.5577 83.9994 71.7721 82.7334 72.9738 79.9699L81.9978 59.2178C86.5275 58.9936 90.7612 56.2659 92.6923 51.8252C94.7206 47.1607 93.6341 41.9271 90.3487 38.4497L87.5085 44.9811C86.4785 47.3498 83.7233 48.435 81.3546 47.405C78.9859 46.375 77.9007 43.6198 78.9307 41.2511L81.822 34.6022Z" fill="#69A6FF"/>
<path d="M92.5058 52.2541L81.3546 47.405C82.7366 48.006 86.203 47.9834 87.4464 45.1241C88.6897 42.2648 89.7818 39.6231 90.3682 38.4048C91.5554 39.7144 93.9608 43.4349 93.7617 47.0203C93.5958 50.0081 92.7544 51.6822 92.5058 52.2541Z" fill="url(#paint4_linear_181_10661)"/>
<path d="M73.3225 60.402C73.7688 59.3756 74.9627 58.9053 75.9892 59.3517C77.0156 59.798 77.4859 60.9919 77.0395 62.0183L72.3148 72.8836C71.8685 73.91 70.6746 74.3802 69.6481 73.9339C68.6217 73.4876 68.1514 72.2936 68.5978 71.2672L73.3225 60.402Z" fill="#3688FF" fill-opacity="0.8"/>
<path d="M65.9865 77.2717C66.4329 76.2452 67.6268 75.775 68.6532 76.2213C69.6797 76.6677 70.1499 77.8616 69.7036 78.888C69.2572 79.9145 68.0633 80.3847 67.0369 79.9384C66.0105 79.492 65.5402 78.2981 65.9865 77.2717Z" fill="#3688FF"/>
<path d="M57.0835 28.2366L60.2128 25.5258L69.0988 35.7836L65.9695 38.4944L57.0835 28.2366Z" fill="#68DFAD"/>
<path fill-rule="evenodd" clip-rule="evenodd" d="M72.0896 20.2948L55.3325 19.094L49.7002 97.6924L66.4572 98.8932L67.9153 78.5454L63.1276 78.2023L65.0718 51.0719L69.8595 51.415L72.0896 20.2948ZM62.4246 37.6484C65.7298 37.8852 68.6013 35.3978 68.8381 32.0926C69.075 28.7873 66.5876 25.9159 63.2823 25.6791C59.9771 25.4422 57.1057 27.9296 56.8688 31.2349C56.632 34.5401 59.1194 37.4115 62.4246 37.6484Z" fill="url(#paint5_linear_181_10661)"/>
<path d="M65.0718 51.072L68.6626 51.3293L66.7184 78.4598L63.1276 78.2025L65.0718 51.072Z" fill="#68DFAD"/>
<path fill-rule="evenodd" clip-rule="evenodd" d="M58.0918 42.1503L56.0969 42.0073L52.4087 93.4753L54.4036 93.6183L58.0918 42.1503ZM62.0815 42.4362L60.0866 42.2932L59.2574 53.8636L61.2523 54.0065L62.0815 42.4362ZM57.399 79.797L59.3939 79.94L58.3932 93.9042L56.3983 93.7612L57.399 79.797ZM61.0523 56.7994L59.0574 56.6564L57.5421 77.8022L59.537 77.9451L61.0523 56.7994Z" fill="#FFD36C"/>
<path d="M46.4591 57.59L43.0052 58.331L38.3685 36.7175L36.4181 33.75L36.6505 27.1784L39.4764 26.5722L42.3839 32.4702L41.8224 35.9765L46.4591 57.59Z" fill="#87B3F4"/>
<path d="M58.1026 88.1234C58.6607 90.7246 57.0044 93.2856 54.4032 93.8437L51.2632 94.5173C48.6621 95.0753 46.101 93.419 45.543 90.8178L40.1631 65.7405C40.0251 65.0973 40.0695 64.4283 40.2912 63.809L41.6714 59.9537L39.6334 58.8795C38.9602 58.5247 38.4789 57.8897 38.3193 57.1457L37.9312 55.3368L50.4909 52.6423L50.8789 54.4512C51.0386 55.1953 50.8601 55.9718 50.3917 56.5715L48.9736 58.3871L51.8137 61.3371C52.2699 61.811 52.5848 62.4029 52.7228 63.0461L58.1026 88.1234Z" fill="url(#paint6_linear_181_10661)"/>
<path d="M53.37 87.4964C53.5932 88.5369 52.9307 89.5613 51.8902 89.7845C50.8497 90.0077 49.8253 89.3452 49.6021 88.3047L44.8195 66.0113C44.5963 64.9709 45.2588 63.9464 46.2993 63.7232C47.3398 63.5 48.3642 64.1625 48.5874 65.203L53.37 87.4964Z" fill="#3688FF" fill-opacity="0.8"/>
<path d="M58.1702 88.4373C57.1297 88.6605 56.1053 87.9979 55.8821 86.9575L51.0994 64.6641C50.8762 63.6236 51.5388 62.5992 52.5792 62.376L58.1702 88.4373Z" fill="#3688FF" fill-opacity="0.8"/>
<path d="M45.6106 91.1318C46.6511 90.9086 47.3136 89.8842 47.0904 88.8437L42.3078 66.5503C42.0846 65.5098 41.0601 64.8473 40.0197 65.0705L45.6106 91.1318Z" fill="#3688FF" fill-opacity="0.8"/>
<path d="M24.5 73.8939C24.5 72.5684 25.5745 71.4939 26.9 71.4939H94.1C95.4255 71.4939 96.5 72.5684 96.5 73.8939V101.494C96.5 104.145 94.351 106.294 91.7 106.294H29.3C26.649 106.294 24.5 104.145 24.5 101.494V73.8939Z" fill="url(#paint7_linear_181_10661)"/>
<path d="M27.7 76.6939C27.7 75.3685 28.7745 74.2939 30.1 74.2939H90.9C92.2254 74.2939 93.3 75.3685 93.3 76.6939V86.6939C93.3 87.1358 92.9418 87.4939 92.5 87.4939H28.5C28.0581 87.4939 27.7 87.1358 27.7 86.6939V76.6939Z" fill="#DDECFF"/>
<path d="M27.7 90.6938C27.7 90.252 28.0581 89.8938 28.5 89.8938H92.5C92.9418 89.8938 93.3 90.252 93.3 90.6938V101.494C93.3 102.819 92.2254 103.894 90.9 103.894H30.1C28.7745 103.894 27.7 102.819 27.7 101.494V90.6938Z" fill="#DDECFF"/>
<path style="mix-blend-mode:multiply" d="M29.534 90.2939C29.534 90.2939 35.7283 91.6435 52.5001 106.705C52.5001 106.705 49.7565 107.092 41.5796 107.357H25.7705L29.534 90.2939Z" fill="url(#paint8_linear_181_10661)"/>
<path d="M42.0701 102.906L39.9792 102.419C39.6102 102.375 39.2981 102.122 39.176 101.767C39.0171 101.165 38.7728 100.591 38.451 100.061C38.2769 99.7203 38.3084 99.3095 38.5322 99.0005L39.6573 97.13C39.7442 97.0384 39.7856 96.9119 39.7698 96.7859C39.754 96.6599 39.6828 96.5479 39.5761 96.4811L36.3631 93.2246C36.2002 93.0351 35.9223 93.0009 35.7193 93.1454L33.9504 94.2817C33.6475 94.5113 33.2409 94.5434 32.9065 94.3639C32.3584 94.1109 31.7946 93.8941 31.2188 93.715C30.864 93.574 30.5962 93.2712 30.4968 92.8986L30.0154 90.7875C30.0214 90.6559 29.9728 90.5278 29.8814 90.4341C29.79 90.3404 29.6641 90.2896 29.5341 90.294H24.9553C24.7116 90.294 24.5522 90.4615 24.474 90.7875L23.9926 92.8986C23.9186 93.241 23.6734 93.5194 23.3458 93.6328L21.6581 94.3639C21.3291 94.5284 20.9432 94.5284 20.6142 94.3639L18.767 93.1454C18.5654 92.9998 18.2874 93.0342 18.1262 93.2246L14.9103 96.475C14.7252 96.6395 14.6904 96.9179 14.829 97.1239L15.9572 98.9944C16.1948 99.2411 16.1948 99.6463 16.0354 100.055C15.7735 100.576 15.558 101.121 15.3916 101.681C15.2536 102.039 14.957 102.31 14.5914 102.412L12.4855 102.9C12.1636 102.982 12.0042 103.144 12.0042 103.39V106.455C12.0138 106.947 12.406 107.342 12.8916 107.351H18.758C18.758 107.351 19.4469 107.287 19.4138 106.339C19.2303 102.19 22.1575 98.3668 26.291 97.849C28.5222 97.5767 30.7612 98.2894 32.4373 99.8053C34.1134 101.321 35.0646 103.494 35.0485 105.77C35.0485 105.995 35.0485 106.214 35.0304 106.424C35.018 106.67 35.1057 106.91 35.273 107.088C35.4402 107.266 35.6723 107.366 35.9149 107.366H41.5586C41.7937 107.367 42.0195 107.273 42.186 107.105C42.3525 106.937 42.4461 106.708 42.4461 106.47V103.396C42.4432 103.166 42.2896 102.966 42.0701 102.906Z" fill="url(#paint9_linear_181_10661)"/>
<path d="M41.3449 102.906L39.2571 102.419C38.888 102.375 38.576 102.122 38.4538 101.767C38.2936 101.166 38.0495 100.592 37.7288 100.061C37.5553 99.7209 37.5856 99.3109 37.807 99.0007L38.9352 97.1303C39.021 97.0382 39.0616 96.912 39.0459 96.7864C39.0302 96.6608 38.9598 96.5489 38.854 96.4814L35.641 93.2248C35.4781 93.0354 35.2002 93.0012 34.9972 93.1456L33.2283 94.2819C32.9253 94.5116 32.5187 94.5436 32.1843 94.3642C31.636 94.1116 31.0723 93.8949 30.4966 93.7153C30.1419 93.5743 29.874 93.2714 29.7746 92.8989L29.2903 90.7877C29.2962 90.6561 29.2476 90.528 29.1562 90.4343C29.0648 90.3406 28.9389 90.2898 28.8089 90.2942H24.2301C23.9895 90.2942 23.827 90.4618 23.7488 90.7877L23.2675 92.8989C23.1946 93.2408 22.9504 93.5193 22.6237 93.633L20.9359 94.3642C20.6069 94.5286 20.2211 94.5286 19.892 94.3642L18.0449 93.1456C17.8419 93.0012 17.564 93.0354 17.4011 93.2248L14.1881 96.4753C14.0031 96.6398 13.9682 96.9182 14.1069 97.1242L15.232 98.9946C15.4727 99.2414 15.4727 99.6466 15.3133 100.055C15.052 100.579 14.8376 101.125 14.6725 101.688C14.5338 102.046 14.236 102.317 13.8692 102.419L11.7814 102.906C11.4595 102.988 11.3 103.15 11.3 103.397V106.461C11.3 106.702 11.3957 106.933 11.5655 107.101C11.7352 107.27 11.9649 107.362 12.2026 107.357H18.0689C18.0689 107.357 18.7579 107.293 18.7248 106.346C18.5413 102.196 21.4684 98.3732 25.602 97.8553C27.8326 97.584 30.0708 98.2971 31.7462 99.8129C33.4216 101.329 34.3724 103.501 34.3564 105.776C34.3564 106.001 34.3564 106.221 34.3564 106.431C34.344 106.676 34.4317 106.916 34.5989 107.094C34.7662 107.272 34.9983 107.372 35.2409 107.372H40.8455C41.337 107.372 41.7382 106.974 41.748 106.477V103.397C41.742 103.158 41.5752 102.955 41.3449 102.906Z" fill="#87B3F4"/>
<path d="M34.9522 105.8C34.9522 106.038 34.9522 106.275 34.9221 106.507C34.9221 106.556 34.9221 106.604 34.9221 106.653C34.901 106.888 34.8649 107.122 34.8258 107.357H18.6707C18.4213 107.354 18.2119 107.166 18.1804 106.915C18.132 106.545 18.1078 106.173 18.1082 105.8C18.1082 101.089 21.8795 97.2703 26.5317 97.2703C26.634 97.2703 26.7362 97.2703 26.8325 97.2703C26.9709 97.2703 27.1063 97.2703 27.2447 97.2946L27.6598 97.3403L28.0659 97.4074L28.445 97.4866H28.4811C28.6075 97.517 28.7368 97.5536 28.8632 97.5901L29.2422 97.7089C29.3686 97.7546 29.4949 97.8003 29.6183 97.8521L29.9612 97.9983L30.0244 98.0288C30.1327 98.0776 30.241 98.1293 30.3463 98.1872C30.4516 98.2451 30.584 98.3121 30.6983 98.3791C30.8126 98.4462 30.8999 98.498 30.9991 98.5619C31.0313 98.5804 31.0625 98.6008 31.0924 98.6229C31.1857 98.6838 31.2759 98.7447 31.3632 98.8087C31.4594 98.8757 31.5557 98.9488 31.6489 99.0219L31.7121 99.0707C31.8054 99.1438 31.8956 99.2199 31.9859 99.2991C32.0761 99.3784 32.1844 99.4758 32.2867 99.5672C32.389 99.6586 32.4763 99.75 32.5665 99.8475C32.7523 100.04 32.927 100.244 33.09 100.457C33.1712 100.563 33.2524 100.667 33.3306 100.777C33.3998 100.874 33.469 100.975 33.5352 101.081C33.6014 101.188 33.6676 101.288 33.7308 101.386C33.7939 101.483 33.815 101.532 33.8541 101.605C33.9143 101.704 33.9695 101.806 34.0196 101.91C34.0609 101.983 34.098 102.058 34.1309 102.135C34.1427 102.157 34.1528 102.179 34.161 102.202C34.2061 102.3 34.2482 102.397 34.2903 102.507C34.4973 103.009 34.6555 103.53 34.7626 104.064C34.7837 104.167 34.8048 104.274 34.8198 104.368C34.8198 104.411 34.8348 104.454 34.8409 104.496C34.8619 104.633 34.88 104.773 34.892 104.917C34.892 104.965 34.892 105.014 34.892 105.063C34.9431 105.325 34.9522 105.562 34.9522 105.8Z" fill="url(#paint10_linear_181_10661)"/>
<defs>
<linearGradient id="paint0_linear_181_10661" x1="103.1" y1="123.494" x2="75.4999" y2="-7.7061" gradientUnits="userSpaceOnUse">
<stop stop-color="#DCE6F7"/>
<stop offset="1" stop-color="#F9FBFE"/>
</linearGradient>
<linearGradient id="paint1_linear_181_10661" x1="8.05356" y1="-12.2198" x2="53.7135" y2="70.28" gradientUnits="userSpaceOnUse">
<stop stop-color="white"/>
<stop offset="0.650469" stop-color="#E9EFFF"/>
<stop offset="1" stop-color="#D7E3FF"/>
</linearGradient>
<linearGradient id="paint2_linear_181_10661" x1="89.5" y1="67.2939" x2="89.5" y2="78.6939" gradientUnits="userSpaceOnUse">
<stop stop-color="#C1DBFF"/>
<stop offset="1" stop-color="#76AEFF"/>
</linearGradient>
<linearGradient id="paint3_linear_181_10661" x1="31.9001" y1="67.2939" x2="31.9001" y2="78.6939" gradientUnits="userSpaceOnUse">
<stop stop-color="#C1DBFF"/>
<stop offset="1" stop-color="#76AEFF"/>
</linearGradient>
<linearGradient id="paint4_linear_181_10661" x1="89.5369" y1="43.4139" x2="83.7081" y2="55.0747" gradientUnits="userSpaceOnUse">
<stop stop-color="#66A4FF"/>
<stop offset="1" stop-color="#3386FF"/>
</linearGradient>
<linearGradient id="paint5_linear_181_10661" x1="66.1792" y1="91.4428" x2="33.1637" y2="37.6532" gradientUnits="userSpaceOnUse">
<stop stop-color="#FFAB00"/>
<stop offset="1" stop-color="#FFC83C"/>
</linearGradient>
<linearGradient id="paint6_linear_181_10661" x1="44.1574" y1="54.0011" x2="48.8937" y2="94.7754" gradientUnits="userSpaceOnUse">
<stop stop-color="#66A4FF"/>
<stop offset="1" stop-color="#99C3FF"/>
</linearGradient>
<linearGradient id="paint7_linear_181_10661" x1="62.5" y1="138.094" x2="51.7326" y2="81.9108" gradientUnits="userSpaceOnUse">
<stop stop-color="#66A4FF"/>
<stop offset="1" stop-color="#C0DAFF"/>
</linearGradient>
<linearGradient id="paint8_linear_181_10661" x1="41.0914" y1="98.8253" x2="37.6746" y2="103.125" gradientUnits="userSpaceOnUse">
<stop stop-color="#D7E3FF" stop-opacity="0"/>
<stop offset="1" stop-color="#8BA4D8"/>
</linearGradient>
<linearGradient id="paint9_linear_181_10661" x1="12.0192" y1="98.8268" x2="42.4672" y2="98.8268" gradientUnits="userSpaceOnUse">
<stop stop-color="#EEF5FF" stop-opacity="0"/>
<stop offset="0.03" stop-color="#E7F0FD" stop-opacity="0.05"/>
<stop offset="0.1" stop-color="#D4E2F8" stop-opacity="0.19"/>
<stop offset="0.18" stop-color="#B4CCF0" stop-opacity="0.41"/>
<stop offset="0.27" stop-color="#8AAEE6" stop-opacity="0.7"/>
<stop offset="0.36" stop-color="#6090DB"/>
</linearGradient>
<linearGradient id="paint10_linear_181_10661" x1="18.0961" y1="102.309" x2="34.9522" y2="102.309" gradientUnits="userSpaceOnUse">
<stop offset="0.24" stop-color="#EEF5FF"/>
<stop offset="0.53" stop-color="#E3EFFF"/>
<stop offset="1" stop-color="#C8DFFF"/>
</linearGradient>
</defs>
</svg>
