<svg width="121" height="121" viewBox="0 0 121 121" fill="none" xmlns="http://www.w3.org/2000/svg">
<g clip-path="url(#clip0_181_27274)">
<path d="M48.5907 29.6718C55.6959 13.2702 81.7396 13.3919 96.5791 21.746C122.073 36.0981 107.495 97.6638 82.7886 107.032C64.926 113.805 28.3355 114.475 16.5177 99.595C9.11259 90.2712 7.03202 70.5985 26.7072 62.0955C39.2337 56.682 42.3975 43.9683 48.5907 29.6718Z" fill="url(#paint0_linear_181_27274)"/>
<path d="M26.4744 78.4333C25.9187 78.4333 25.4681 78.8989 25.4681 79.4732V80.7212H24.2611C23.7054 80.7212 23.2549 81.1868 23.2549 81.761C23.2549 82.3353 23.7054 82.8008 24.2611 82.8008H25.4681L25.4681 84.0483C25.4681 84.6226 25.9187 85.0881 26.4744 85.0881C27.0301 85.0881 27.4807 84.6226 27.4807 84.0483V82.8008H28.6887C29.2444 82.8008 29.695 82.3353 29.695 81.761C29.695 81.1868 29.2444 80.7212 28.6887 80.7212L27.4807 80.7212L27.4807 79.4732C27.4807 78.8989 27.0301 78.4333 26.4744 78.4333Z" fill="#68DFAD"/>
<path fill-rule="evenodd" clip-rule="evenodd" d="M112.244 64.1842C111.839 64.1842 111.511 64.5121 111.511 64.9166L111.511 65.7956L110.633 65.7956C110.228 65.7956 109.9 66.1235 109.9 66.528C109.9 66.9324 110.228 67.2603 110.633 67.2603L111.511 67.2603L111.511 68.1389C111.511 68.5434 111.839 68.8713 112.244 68.8713C112.648 68.8713 112.976 68.5434 112.976 68.1389L112.976 67.2603L113.855 67.2603C114.26 67.2603 114.587 66.9324 114.587 66.528C114.587 66.1235 114.26 65.7956 113.855 65.7956L112.976 65.7956L112.976 64.9166C112.976 64.5121 112.648 64.1842 112.244 64.1842Z" fill="#68DFAD"/>
<path fill-rule="evenodd" clip-rule="evenodd" d="M112.45 94.761C114.176 94.761 115.575 93.3618 115.575 91.6357C115.575 89.9096 114.176 88.5104 112.45 88.5104C110.724 88.5104 109.325 89.9096 109.325 91.6357C109.325 93.3618 110.724 94.761 112.45 94.761ZM112.45 96.4658C115.117 96.4658 117.28 94.3033 117.28 91.6357C117.28 88.9682 115.117 86.8057 112.45 86.8057C109.782 86.8057 107.62 88.9682 107.62 91.6357C107.62 94.3033 109.782 96.4658 112.45 96.4658Z" fill="#68DFAD"/>
<path d="M111.568 40.3286H56.5521V32.6041C56.5521 29.6171 59.0815 27.1957 62.2016 27.1957H105.235C109.168 27.1957 111.568 30.2479 111.568 34.013V40.3286Z" fill="url(#paint1_linear_181_27274)"/>
<path d="M44.8088 34.2118C44.8088 30.3368 48.0902 27.1956 52.1379 27.1956L106.166 27.1956C102.405 27.1956 99.9174 30.115 99.9174 33.7164V97.5716C99.9174 101.85 96.2943 105.319 91.825 105.319H50.4583C47.3382 105.319 44.8088 102.897 44.8088 99.9104V34.2118Z" fill="url(#paint2_linear_181_27274)"/>
<path d="M31.8418 93.0403L36.3167 95.9495L40.7917 93.0403L45.2666 95.9495L49.7415 93.0403L54.2164 95.9495L58.6914 93.0403L63.1663 95.9495L67.6412 93.0403L72.1162 95.9496L76.5911 93.0404L81.066 95.9495L85.5409 93.0403V97.981C85.5409 102.378 88.3477 105.319 92.9403 105.319H40.8504C35.8751 105.319 31.8418 101.458 31.8418 96.6946V93.0403Z" fill="url(#paint3_linear_181_27274)"/>
<path d="M54.5676 61.7213C54.5676 60.9658 55.2074 60.3533 55.9966 60.3533L71.3326 60.353C72.1218 60.353 72.7616 60.9655 72.7616 61.721V63.0891C72.7616 63.8446 72.1218 64.4571 71.3326 64.4571L55.9966 64.4573C55.2074 64.4573 54.5676 63.8448 54.5676 63.0893V61.7213Z" fill="#DDECFF"/>
<path d="M55.9966 39.49C55.2074 39.49 54.5676 40.1025 54.5676 40.858V42.226C54.5676 42.9815 55.2074 43.594 55.9966 43.594H88.4701C89.2593 43.594 89.8991 42.9815 89.8991 42.226V40.858C89.8991 40.1025 89.2593 39.49 88.4701 39.49L55.9966 39.49Z" fill="#DDECFF"/>
<path d="M54.5676 51.0802C54.5676 50.3247 55.2074 49.7122 55.9966 49.7122L88.4701 49.7119C89.2593 49.7119 89.8991 50.3244 89.8991 51.0799V52.448C89.8991 53.2035 89.2593 53.816 88.4701 53.816L55.9966 53.8162C55.2074 53.8162 54.5676 53.2037 54.5676 52.4482V51.0802Z" fill="#DDECFF"/>
<path d="M34.9107 49.7242C37.2148 46.8058 38.59 43.12 38.59 39.1131C38.59 29.6483 30.9172 21.9756 21.4524 21.9756C11.9877 21.9756 4.31494 29.6483 4.31494 39.1131C4.31494 48.5779 11.9877 56.2506 21.4524 56.2506C24.7008 56.2506 27.738 55.3468 30.3265 53.7771C32.518 55.0489 35.8985 54.8596 36.6919 54.7943C36.7542 54.7892 36.8163 54.7926 36.8784 54.796C36.9303 54.7989 36.9823 54.8018 37.0345 54.7996C37.2629 54.7904 37.4578 54.6328 37.5234 54.4216C37.5819 54.2332 37.4417 54.059 37.2924 53.9301C36.6958 53.4152 35.1509 51.8897 34.9107 49.7242Z" fill="#FFC93D"/>
<path fill-rule="evenodd" clip-rule="evenodd" d="M29.5555 36.3077H13.3048V46.3827C13.3048 46.526 13.3562 46.6298 13.4065 46.6866C13.431 46.7142 13.4517 46.7271 13.4628 46.7324C13.4723 46.7369 13.4771 46.7373 13.4812 46.7373H29.3791C29.3832 46.7373 29.388 46.7369 29.3975 46.7324C29.4086 46.7271 29.4293 46.7142 29.4538 46.6866C29.5041 46.6298 29.5555 46.526 29.5555 46.3827V36.3077ZM12.092 35.095V46.3827C12.092 47.2483 12.714 47.95 13.4812 47.95H29.3791C30.1463 47.95 30.7682 47.2483 30.7682 46.3827V35.095H12.092Z" fill="white"/>
<path d="M12.092 32.9354C12.092 31.9848 12.7831 31.2141 13.6355 31.2141H29.2248C30.0772 31.2141 30.7682 31.9848 30.7682 32.9354V36.5502H12.092V32.9354Z" fill="white"/>
<path d="M15.4878 30.1328C15.4878 29.6583 15.8725 29.2737 16.347 29.2737C16.8215 29.2737 17.2061 29.6583 17.2061 30.1328V32.3667C17.2061 32.8412 16.8215 33.2258 16.347 33.2258C15.8725 33.2258 15.4878 32.8412 15.4878 32.3667V30.1328Z" fill="white"/>
<path fill-rule="evenodd" clip-rule="evenodd" d="M18.1745 30.1329V32.3667C18.1745 33.376 17.3563 34.1942 16.347 34.1942C15.3377 34.1942 14.5195 33.376 14.5195 32.3667V30.1329C14.5195 29.1236 15.3377 28.3054 16.347 28.3054C17.3563 28.3054 18.1745 29.1236 18.1745 30.1329ZM16.347 29.2737C15.8725 29.2737 15.4878 29.6584 15.4878 30.1329V32.3667C15.4878 32.8412 15.8725 33.2259 16.347 33.2259C16.8215 33.2259 17.2062 32.8412 17.2062 32.3667V30.1329C17.2062 29.6584 16.8215 29.2737 16.347 29.2737Z" fill="#FFC93D"/>
<path d="M25.9172 30.1328C25.9172 29.6583 26.3019 29.2737 26.7764 29.2737C27.2509 29.2737 27.6356 29.6583 27.6356 30.1328V32.3667C27.6356 32.8412 27.2509 33.2258 26.7764 33.2258C26.3019 33.2258 25.9172 32.8412 25.9172 32.3667V30.1328Z" fill="white"/>
<path fill-rule="evenodd" clip-rule="evenodd" d="M28.6039 30.1329V32.3667C28.6039 33.376 27.7857 34.1942 26.7764 34.1942C25.7672 34.1942 24.949 33.376 24.949 32.3667V30.1329C24.949 29.1236 25.7672 28.3054 26.7764 28.3054C27.7857 28.3054 28.6039 29.1236 28.6039 30.1329ZM26.7764 29.2737C26.3019 29.2737 25.9173 29.6584 25.9173 30.1329V32.3667C25.9173 32.8412 26.3019 33.2259 26.7764 33.2259C27.2509 33.2259 27.6356 32.8412 27.6356 32.3667V30.1329C27.6356 29.6584 27.2509 29.2737 26.7764 29.2737Z" fill="#FFC93D"/>
<g opacity="0.5">
<rect x="14.76" y="42.3713" width="3.63822" height="3.39567" fill="white"/>
<rect x="19.6111" y="42.3713" width="3.63822" height="3.39567" fill="white"/>
<rect x="19.6111" y="38.0054" width="3.63822" height="3.39567" fill="white"/>
<rect x="14.76" y="38.0054" width="3.63822" height="3.39567" fill="white"/>
<rect x="24.4619" y="38.0054" width="3.63822" height="3.39567" fill="white"/>
<rect x="24.4619" y="42.3713" width="3.63822" height="3.39567" fill="white"/>
</g>
</g>
<defs>
<linearGradient id="paint0_linear_181_27274" x1="52.8856" y1="59.0287" x2="58.6449" y2="109.396" gradientUnits="userSpaceOnUse">
<stop stop-color="#CCE1FF" stop-opacity="0.28"/>
<stop offset="1" stop-color="#CCE1FF" stop-opacity="0"/>
</linearGradient>
<linearGradient id="paint1_linear_181_27274" x1="79.5772" y1="0.378391" x2="94.4129" y2="63.3557" gradientUnits="userSpaceOnUse">
<stop offset="0.451977" stop-color="#136EF3"/>
<stop offset="1" stop-color="#C0DAFF"/>
</linearGradient>
<linearGradient id="paint2_linear_181_27274" x1="85.5614" y1="122.135" x2="34.7772" y2="53.2617" gradientUnits="userSpaceOnUse">
<stop stop-color="#4390FF"/>
<stop offset="1" stop-color="#87B3F4"/>
</linearGradient>
<linearGradient id="paint3_linear_181_27274" x1="65.8407" y1="167.758" x2="44.6885" y2="58.7589" gradientUnits="userSpaceOnUse">
<stop offset="0.229167" stop-color="#136EF3"/>
<stop offset="0.804706" stop-color="#B4D1FA"/>
</linearGradient>
<clipPath id="clip0_181_27274">
<rect width="120" height="120" fill="white" transform="translate(0.5 0.293945)"/>
</clipPath>
</defs>
</svg>
