<svg width="121" height="120" viewBox="0 0 121 120" fill="none" xmlns="http://www.w3.org/2000/svg">
<path d="M69.0211 20.2619C45.773 7.84805 26.8365 16.0344 17.4627 26.2964C-2.22336 47.8481 10.9004 93.5379 53.0855 94.4H79.3324C84.0195 94.4 102.768 94.4 109.33 81.4689C117.027 66.3009 109.33 54.7447 100.894 51.2964C92.4567 47.8481 87.7696 40.9515 84.9573 36.6412C82.1451 32.3308 76.5201 24.2661 69.0211 20.2619Z" fill="url(#paint0_radial_290_6039)"/>
<ellipse cx="57.1001" cy="105.8" rx="23" ry="1.8" fill="url(#paint1_linear_290_6039)"/>
<ellipse cx="57.1001" cy="105.8" rx="23" ry="1.8" fill="url(#paint2_linear_290_6039)"/>
<circle cx="54.0158" cy="75.1208" r="11.5288" transform="rotate(25.1871 54.0158 75.1208)" fill="url(#paint3_linear_290_6039)"/>
<path fill-rule="evenodd" clip-rule="evenodd" d="M77.2595 25.0058C79.1098 25.8759 79.4893 27.4824 78.0514 29.7809C77.4934 30.6728 77.4218 31.2581 77.9576 32.0053C83.2989 35.5544 89.327 42.8682 84.438 55.6094C83.922 56.9539 83.4268 58.2346 82.9549 59.4547C78.2267 71.6811 75.8543 77.8156 78.69 80.9885C81.6502 84.3008 80.8331 85.5151 80.1805 86.485C80.1456 86.5369 80.1111 86.5881 80.0777 86.6389C79.2413 87.9114 77.7577 88.2846 75.3216 87.139L53.4182 76.8381L53.4099 76.8559L31.388 66.4993C28.952 65.3536 28.2932 63.9729 28.7399 62.5171C28.7576 62.4595 28.7749 62.4008 28.7924 62.3413L28.7929 62.3398C29.1237 61.2185 29.5378 59.8147 33.977 59.9823C38.2294 60.1428 41.4413 54.4031 47.8429 42.9636L47.844 42.9616C48.4825 41.8207 49.1527 40.6231 49.8588 39.3689C56.1538 28.1885 64.9084 27.5008 71.0361 28.9965C71.9868 28.9712 72.6942 28.5461 72.9386 27.4954C73.4046 25.4917 74.7924 23.8455 77.2595 25.0058Z" fill="url(#paint4_linear_290_6039)"/>
<path fill-rule="evenodd" clip-rule="evenodd" d="M35.7518 39.1256C37.4728 36.9458 38.4999 34.1929 38.4999 31.2001C38.4999 24.1309 32.7691 18.4001 25.6999 18.4001C18.6307 18.4001 12.8999 24.1309 12.8999 31.2001C12.8999 38.2694 18.6307 44.0001 25.6999 44.0001C28.1261 44.0001 30.3946 43.3251 32.3279 42.1527C33.9073 43.0693 36.3135 42.9698 37.0128 42.9179C37.0652 42.914 37.1182 42.9161 37.1712 42.9182C37.2502 42.9213 37.3291 42.9244 37.4054 42.9078C37.5067 42.8857 37.5945 42.8244 37.6516 42.7409C37.7782 42.5555 37.6071 42.3379 37.4406 42.1873C36.9466 41.74 35.9202 40.6432 35.7518 39.1256Z" fill="white"/>
<path d="M96.7951 49.1161C99.6437 42.5714 97.9446 35.0272 92.7124 30.2719C91.5925 29.254 89.8603 29.3247 88.8434 30.4296C87.8266 31.5346 87.9102 33.2556 89.0302 34.2734C92.5408 37.464 93.6805 42.5247 91.7644 46.9271C91.1657 48.3024 91.8066 49.9074 93.1957 50.512C94.5849 51.1164 96.1964 50.4915 96.7951 49.1161Z" fill="#FFBE04"/>
<path d="M107.541 53.2787C112.38 42.1624 109.022 29.3108 99.5747 21.8539C98.3863 20.9159 96.6642 21.1068 95.7283 22.2804C94.7924 23.4539 94.9971 25.1657 96.1854 26.1037C103.693 32.0294 106.362 42.2428 102.511 51.0894C101.912 52.4648 102.553 54.0698 103.942 54.6744C105.331 55.2789 106.943 54.654 107.541 53.2787Z" fill="#FCCD46"/>
<path d="M38.6602 31.2C38.6602 38.3576 32.8578 44.16 25.7002 44.16C18.5426 44.16 12.7402 38.3576 12.7402 31.2C12.7402 24.0424 18.5426 18.24 25.7002 18.24C32.8578 18.24 38.6602 24.0424 38.6602 31.2Z" fill="white"/>
<path fill-rule="evenodd" clip-rule="evenodd" d="M25.7002 43.98C32.7584 43.98 38.4802 38.2582 38.4802 31.2C38.4802 24.1418 32.7584 18.42 25.7002 18.42C18.642 18.42 12.9202 24.1418 12.9202 31.2C12.9202 38.2582 18.642 43.98 25.7002 43.98ZM25.7002 44.16C32.8578 44.16 38.6602 38.3576 38.6602 31.2C38.6602 24.0424 32.8578 18.24 25.7002 18.24C18.5426 18.24 12.7402 24.0424 12.7402 31.2C12.7402 38.3576 18.5426 44.16 25.7002 44.16Z" fill="#E6E9EC"/>
<path fill-rule="evenodd" clip-rule="evenodd" d="M34.1131 21.3414L18.6312 23.5305C17.2523 23.7306 16.2738 25.0427 16.474 26.4438L18.5061 41.9815C15.0295 39.6571 12.7402 35.6959 12.7402 31.2C12.7402 24.0424 18.5426 18.24 25.7002 18.24C28.9111 18.24 31.8492 19.4076 34.1131 21.3414Z" fill="#0033C9"/>
<path fill-rule="evenodd" clip-rule="evenodd" d="M29.6588 31.1109C29.8368 31.1109 29.9702 31.0442 30.0814 30.933C30.1926 30.8218 30.2371 30.6884 30.2371 30.5105V25.6178C30.2371 25.4399 30.1926 25.3064 30.0814 25.1952C29.9702 25.0841 29.8368 25.0173 29.6588 25.0173C29.4809 25.0173 29.3475 25.0841 29.2363 25.1952C29.1251 25.3287 29.0806 25.4621 29.0806 25.6178V30.5105C29.0806 30.6884 29.1251 30.8218 29.2363 30.933C29.3475 31.0442 29.4809 31.1109 29.6588 31.1109ZM28.5911 27.3747C28.4799 27.2635 28.3465 27.1968 28.1686 27.1968C27.9239 27.1968 27.746 27.308 27.6348 27.5527C27.3902 27.2635 27.0566 27.1301 26.6341 27.1301C26.1226 27.1301 25.7 27.3303 25.3442 27.7083C24.9883 28.1086 24.8327 28.5757 24.8327 29.1316C24.8327 29.6876 25.0106 30.1769 25.3442 30.555C25.7 30.9553 26.1226 31.1332 26.6341 31.1332C27.0566 31.1332 27.3902 30.9998 27.6348 30.7106C27.746 30.9553 27.9239 31.0665 28.1686 31.0665C28.3465 31.0665 28.4799 30.9998 28.5911 30.8886C28.7023 30.7774 28.7468 30.6439 28.7468 30.466V27.7306C28.769 27.6416 28.7023 27.4859 28.5911 27.3747ZM27.39 29.8433C27.2566 30.0213 27.0564 30.1102 26.8118 30.1102C26.5671 30.1102 26.367 30.0213 26.2336 29.8433C26.1001 29.6654 26.0112 29.443 26.0112 29.1539C26.0112 28.887 26.0779 28.6646 26.2336 28.4867C26.367 28.3088 26.5671 28.2199 26.8118 28.2199C27.0564 28.2199 27.2566 28.3088 27.39 28.4867C27.5234 28.6646 27.6124 28.887 27.6124 29.1539C27.5902 29.4208 27.5234 29.6654 27.39 29.8433ZM32.5058 27.1523C33.084 27.1523 33.551 27.3302 33.9291 27.7305C34.3072 28.1086 34.4851 28.5979 34.4628 29.1983C34.4628 29.7543 34.2849 30.2436 33.9291 30.6217C33.551 30.9997 33.084 31.1999 32.5058 31.1999C31.9275 31.1999 31.4383 30.9997 31.0824 30.6217C30.7044 30.2214 30.5265 29.7543 30.5265 29.1761C30.5265 28.5979 30.7266 28.1086 31.0824 27.7305C31.4605 27.3525 31.9275 27.1523 32.5058 27.1523ZM32.5275 30.1101C32.7721 30.1101 32.9723 30.0211 33.1057 29.8432C33.2391 29.6653 33.3059 29.4207 33.3281 29.1538C33.3281 28.8869 33.2391 28.6645 33.1057 28.4866C32.9723 28.3087 32.7721 28.2198 32.5275 28.2198C32.2828 28.2198 32.0827 28.3087 31.9493 28.4866C31.7936 28.6645 31.7269 28.8869 31.7269 29.1538C31.7269 29.4429 31.8158 29.6653 31.9493 29.8432C32.0827 30.0211 32.2828 30.1101 32.5275 30.1101ZM24.8106 26.2183C24.8106 26.3962 24.5883 26.7521 24.1879 27.2858L22.0974 29.9768H24.2324C24.6994 29.9768 24.9218 30.1547 24.9218 30.555C24.9218 30.9331 24.6994 31.1332 24.2324 31.1332H21.3191C20.6964 31.1332 20.385 30.9108 20.385 30.4438C20.385 30.2881 20.474 30.088 20.6296 29.8878L23.1205 26.6854H21.1856C20.9632 26.6854 20.7853 26.6409 20.6741 26.5297C20.5629 26.4407 20.4962 26.3073 20.4962 26.1294C20.4962 25.9737 20.5629 25.8403 20.6741 25.7291C20.7853 25.6179 20.9632 25.5734 21.1856 25.5734H24.01C24.5438 25.5734 24.8106 25.7958 24.8106 26.2183Z" fill="#0033C9"/>
<path fill-rule="evenodd" clip-rule="evenodd" d="M21.0297 32.0452H31.5489C31.9048 32.0452 32.1939 32.312 32.1939 32.6901V38.8504C32.1939 39.2062 31.9048 39.4954 31.5489 39.4954H30.0144C30.0811 39.4286 30.1256 39.3397 30.1701 39.2285L31.7713 35.3366C31.7936 35.2699 31.8158 35.1809 31.8158 35.092C31.8158 34.9808 31.7491 34.8918 31.6601 34.8028C31.5712 34.7139 31.46 34.6694 31.3488 34.6694C31.1041 34.6694 30.9485 34.8028 30.8595 35.0252L30.1479 36.8711L29.4807 35.0252C29.3917 34.7806 29.236 34.6694 28.9914 34.6694C28.8802 34.6694 28.769 34.7139 28.6801 34.8028C28.5689 34.8696 28.5244 34.9808 28.5244 35.092C28.5244 35.1809 28.5466 35.2699 28.5689 35.3366L29.6586 38.0498L29.2583 38.9171C29.2138 39.0283 29.1916 39.1173 29.1916 39.2062C29.1916 39.3174 29.236 39.4064 29.325 39.4954H21.0297C20.6739 39.4954 20.3848 39.2062 20.3848 38.8504V32.6901C20.3848 32.3343 20.6739 32.0452 21.0297 32.0452ZM22.8758 36.6266C23.3651 36.6266 23.7876 36.4932 24.1212 36.1818C24.477 35.8705 24.655 35.4702 24.655 34.9142C24.655 34.4249 24.477 34.0024 24.1435 33.691C23.7876 33.3797 23.3651 33.224 22.8313 33.224H21.5637C21.1856 33.224 21.0077 33.4019 21.0077 33.78V37.7831C21.0077 37.9387 21.0744 38.0944 21.1634 38.1834C21.2523 38.2946 21.3858 38.339 21.5415 38.339C21.6971 38.339 21.8306 38.2723 21.9195 38.1834C22.0307 38.0944 22.0752 37.961 22.0752 37.7831V36.6266H22.8758ZM28.2354 37.7608C28.2354 37.9165 28.1909 38.0277 28.0797 38.1389C27.9685 38.25 27.8573 38.2945 27.7017 38.2945C27.4793 38.2945 27.3014 38.1833 27.1902 37.9609C26.9678 38.2278 26.6564 38.3612 26.2561 38.3612C25.7891 38.3612 25.3888 38.1833 25.0774 37.8275C24.7661 37.4717 24.5882 37.0269 24.5882 36.4931C24.5882 35.9594 24.7438 35.5368 25.0774 35.1588C25.3888 34.8029 25.7891 34.625 26.2561 34.625C26.6564 34.625 26.9455 34.7585 27.1902 35.0253C27.3014 34.8029 27.457 34.6917 27.7017 34.6917C27.8573 34.6917 27.9908 34.7362 28.0797 34.8474C28.1909 34.9586 28.2354 35.0698 28.2354 35.2255V37.7608ZM22.8093 34.2024H22.0754V35.7147H22.8093C23.0317 35.7147 23.2096 35.648 23.343 35.4923C23.4765 35.3589 23.5432 35.1587 23.5432 34.9586C23.5432 34.7362 23.4765 34.5583 23.343 34.4248C23.2096 34.2692 23.0317 34.2024 22.8093 34.2024ZM26.4345 35.6035C26.2121 35.6035 26.0342 35.6924 25.9008 35.8481C25.7674 36.026 25.7006 36.2262 25.7006 36.4708C25.7006 36.7155 25.7674 36.9378 25.9008 37.0935C26.0342 37.2714 26.2121 37.3382 26.4345 37.3382C26.6569 37.3382 26.8348 37.2492 26.9683 37.0935C27.1017 36.9156 27.1684 36.7155 27.1684 36.4708C27.1684 36.2262 27.1017 36.0038 26.9683 35.8481C26.8348 35.6924 26.6569 35.6035 26.4345 35.6035Z" fill="#03CA77"/>
<ellipse cx="46.6999" cy="28.6" rx="1.8" ry="1.8" fill="#3A8AFF"/>
<path fill-rule="evenodd" clip-rule="evenodd" d="M94.2371 64.0772C93.861 63.8601 93.3801 63.989 93.1629 64.3651L92.6911 65.1823L91.8738 64.7104C91.4978 64.4933 91.0169 64.6222 90.7997 64.9982C90.5826 65.3743 90.7115 65.8552 91.0875 66.0723L91.9048 66.5442L91.4331 67.3613C91.2159 67.7374 91.3448 68.2182 91.7209 68.4354C92.097 68.6525 92.5779 68.5237 92.795 68.1476L93.2667 67.3305L94.0838 67.8022C94.4598 68.0193 94.9407 67.8905 95.1579 67.5144C95.375 67.1383 95.2461 66.6574 94.8701 66.4403L94.053 65.9686L94.5249 65.1514C94.742 64.7753 94.6131 64.2944 94.2371 64.0772Z" fill="#3A8AFF"/>
<path fill-rule="evenodd" clip-rule="evenodd" d="M23.3493 55.0745C23.043 55.0745 22.7947 55.3228 22.7947 55.6291V56.2947H22.1291C21.8228 56.2947 21.5745 56.543 21.5745 56.8493C21.5745 57.1556 21.8228 57.4039 22.1291 57.4039H22.7947V58.0693C22.7947 58.3756 23.043 58.6239 23.3493 58.6239C23.6556 58.6239 23.9039 58.3756 23.9039 58.0693V57.4039H24.5693C24.8756 57.4039 25.1239 57.1556 25.1239 56.8493C25.1239 56.543 24.8756 56.2947 24.5693 56.2947H23.9039V55.6291C23.9039 55.3228 23.6556 55.0745 23.3493 55.0745Z" fill="#97C2FF"/>
<path fill-rule="evenodd" clip-rule="evenodd" d="M53.7 26.0001C55.0255 26.0001 56.1 24.9256 56.1 23.6001C56.1 22.2747 55.0255 21.2001 53.7 21.2001C52.3745 21.2001 51.3 22.2747 51.3 23.6001C51.3 24.9256 52.3745 26.0001 53.7 26.0001ZM53.7 26.8001C55.4673 26.8001 56.9 25.3675 56.9 23.6001C56.9 21.8328 55.4673 20.4001 53.7 20.4001C51.9327 20.4001 50.5 21.8328 50.5 23.6001C50.5 25.3675 51.9327 26.8001 53.7 26.8001Z" fill="#97C2FF"/>
<defs>
<radialGradient id="paint0_radial_290_6039" cx="0" cy="0" r="1" gradientUnits="userSpaceOnUse" gradientTransform="translate(17.1 27) rotate(42.4432) scale(104.615 99.0602)">
<stop stop-color="#DAE8FD"/>
<stop offset="0.386483" stop-color="#EFF6FF"/>
<stop offset="1" stop-color="#F7FAFF"/>
</radialGradient>
<linearGradient id="paint1_linear_290_6039" x1="67.9176" y1="108.256" x2="67.4928" y2="101.697" gradientUnits="userSpaceOnUse">
<stop stop-color="#EEF5FF"/>
<stop offset="1" stop-color="#F7FAFF"/>
</linearGradient>
<linearGradient id="paint2_linear_290_6039" x1="67.9176" y1="108.256" x2="67.4928" y2="101.697" gradientUnits="userSpaceOnUse">
<stop stop-color="#EEF5FF"/>
<stop offset="1" stop-color="#F7FAFF"/>
</linearGradient>
<linearGradient id="paint3_linear_290_6039" x1="54.2338" y1="80.7722" x2="54.0158" y2="86.6496" gradientUnits="userSpaceOnUse">
<stop stop-color="#FFAB00"/>
<stop offset="1" stop-color="#FFBF3C"/>
</linearGradient>
<linearGradient id="paint4_linear_290_6039" x1="78.2826" y1="82.6218" x2="56.7722" y2="69.395" gradientUnits="userSpaceOnUse">
<stop stop-color="#FFAB00"/>
<stop offset="1" stop-color="#FFC83C"/>
</linearGradient>
</defs>
</svg>
