<svg width="180" height="180" viewBox="0 0 180 180" fill="none" xmlns="http://www.w3.org/2000/svg">
<g clip-path="url(#clip0_156_136512)">
<rect width="180" height="180" fill="white"/>
<path d="M180 90C180 139.706 139.706 180 90 180C40.2944 180 0 139.706 0 90C0 40.2944 40.2944 0 90 0C139.706 0 180 40.2944 180 90Z" fill="url(#paint0_radial_156_136512)"/>
<path d="M133.933 160.623C133.933 162.182 117.786 163.446 97.8666 163.446C77.9475 163.446 61.7999 162.182 61.7999 160.623C61.7999 159.064 77.9475 157.8 97.8666 157.8C117.786 157.8 133.933 159.064 133.933 160.623Z" fill="url(#paint1_linear_156_136512)"/>
<path d="M35.8801 107.706C35.2287 107.706 34.7006 108.234 34.7006 108.886V110.301H33.2859C32.6345 110.301 32.1064 110.83 32.1064 111.481C32.1064 112.132 32.6345 112.66 33.2859 112.66H34.7006L34.7006 114.075C34.7006 114.727 35.2287 115.255 35.8801 115.255C36.5315 115.255 37.0595 114.727 37.0595 114.075V112.66H38.4755C39.1269 112.66 39.655 112.132 39.655 111.481C39.655 110.83 39.1269 110.301 38.4755 110.301L37.0595 110.301L37.0595 108.886C37.0595 108.234 36.5315 107.706 35.8801 107.706Z" fill="#68DFAD"/>
<path fill-rule="evenodd" clip-rule="evenodd" d="M162.48 99.9065C161.829 99.9065 161.301 100.435 161.301 101.086L161.301 102.502L159.886 102.502C159.235 102.502 158.707 103.03 158.707 103.681C158.707 104.333 159.235 104.861 159.886 104.861L161.301 104.861L161.301 106.276C161.301 106.927 161.829 107.455 162.48 107.455C163.132 107.455 163.66 106.927 163.66 106.276L163.66 104.861L165.076 104.861C165.727 104.861 166.255 104.333 166.255 103.681C166.255 103.03 165.727 102.502 165.076 102.502L163.66 102.502L163.66 101.086C163.66 100.435 163.132 99.9065 162.48 99.9065Z" fill="#68DFAD"/>
<path fill-rule="evenodd" clip-rule="evenodd" d="M23.6999 95.4C25.5224 95.4 26.9999 93.9225 26.9999 92.1C26.9999 90.2775 25.5224 88.8 23.6999 88.8C21.8773 88.8 20.3999 90.2775 20.3999 92.1C20.3999 93.9225 21.8773 95.4 23.6999 95.4ZM23.6999 97.2C26.5165 97.2 28.7999 94.9167 28.7999 92.1C28.7999 89.2833 26.5165 87 23.6999 87C20.8832 87 18.5999 89.2833 18.5999 92.1C18.5999 94.9167 20.8832 97.2 23.6999 97.2Z" fill="#68DFAD"/>
<path d="M169.2 42.7507H80.5963V30.3103C80.5963 25.4999 84.6698 21.6002 89.6947 21.6002H159C165.334 21.6002 169.2 26.5157 169.2 32.5794V42.7507Z" fill="url(#paint2_linear_156_136512)"/>
<path d="M61.6835 32.8995C61.6835 26.6589 66.968 21.5999 73.4869 21.5999L160.5 21.5999C154.442 21.5999 150.436 26.3017 150.436 32.1017V134.941C150.436 141.831 144.601 147.417 137.403 147.417H70.7819C65.757 147.417 61.6835 143.518 61.6835 138.707V32.8995Z" fill="url(#paint3_linear_156_136512)"/>
<path d="M40.7999 127.644L48.0068 132.329L55.2137 127.644L62.4206 132.329L69.6275 127.644L76.8344 132.329L84.0413 127.644L91.2481 132.329L98.455 127.644L105.662 132.329L112.869 127.644L120.076 132.329L127.283 127.644V135.601C127.283 142.681 131.803 147.418 139.199 147.418H55.3083C47.2955 147.418 40.7999 141.2 40.7999 133.529V127.644Z" fill="url(#paint4_linear_156_136512)"/>
<path d="M77.4001 77.2037C77.4001 75.9869 78.4305 75.0005 79.7015 75.0005L104.4 75.0001C105.671 75.0001 106.702 75.9865 106.702 77.2033V79.4065C106.702 80.6233 105.671 81.6097 104.4 81.6097L79.7015 81.6101C78.4305 81.6101 77.4001 80.6237 77.4001 79.4069V77.2037Z" fill="#DDECFF"/>
<path d="M79.7015 41.4001C78.4305 41.4001 77.4001 42.3865 77.4001 43.6033V45.8065C77.4001 47.0233 78.4305 48.0097 79.7015 48.0097H132C133.271 48.0097 134.302 47.0233 134.302 45.8065V43.6033C134.302 42.3865 133.271 41.4001 132 41.4001L79.7015 41.4001Z" fill="#DDECFF"/>
<path d="M77.4002 60.0662C77.4002 58.8494 78.4305 57.863 79.7016 57.863L132 57.8626C133.271 57.8626 134.302 58.849 134.302 60.0658V62.269C134.302 63.4858 133.271 64.4722 132 64.4722L79.7016 64.4726C78.4305 64.4726 77.4002 63.4862 77.4002 62.2694V60.0662Z" fill="#DDECFF"/>
<path d="M126.733 95.5325L126.737 95.5334C127.794 95.7743 128.508 96.0593 128.953 96.4044C129.379 96.7349 129.559 97.1184 129.559 97.6097C129.559 98.236 129.286 98.7584 128.786 99.1343C128.279 99.5153 127.531 99.7492 126.601 99.7492C125.36 99.7492 124.402 99.3864 123.823 98.8036C123.788 98.7681 123.752 98.7317 123.715 98.695C123.416 98.3921 123.081 98.0543 122.719 97.7861C122.308 97.4826 121.835 97.2467 121.292 97.2467C120.69 97.2467 120.129 97.517 119.775 97.9478C119.415 98.3863 119.272 98.9952 119.536 99.6139C120.34 101.501 122.116 102.753 124.367 103.271V104.802C124.367 105.911 125.23 106.8 126.283 106.8H126.532C127.585 106.8 128.447 105.911 128.447 104.802V103.202C131.525 102.5 133.733 100.286 133.8 97.06V97.0536C133.8 95.5345 133.394 94.3066 132.506 93.3625C131.628 92.4275 130.306 91.8024 128.534 91.4144C128.534 91.4144 128.534 91.4143 128.533 91.4142L126.402 90.9285C126.402 90.9285 126.402 90.9284 126.402 90.9283C125.374 90.6868 124.694 90.4191 124.274 90.0923C123.876 89.7825 123.708 89.4185 123.708 88.9213C123.708 88.2956 123.981 87.7903 124.457 87.4314C124.94 87.0672 125.64 86.8515 126.472 86.8515C127.485 86.8515 128.312 87.2235 128.832 87.8011C129.142 88.1441 129.496 88.5294 129.894 88.8274C130.294 89.1269 130.759 89.3538 131.29 89.3538C131.885 89.3538 132.437 89.0861 132.781 88.6598C133.132 88.225 133.264 87.6227 132.99 87.0172C132.186 85.2468 130.487 83.9741 128.447 83.4092V81.7983C128.447 80.6898 127.585 79.8003 126.532 79.8003H126.283C125.23 79.8003 124.367 80.6898 124.367 81.7983V83.4776C121.548 84.2446 119.467 86.3838 119.467 89.3383C119.467 90.8263 119.891 92.0668 120.748 93.0244C121.599 93.9759 122.854 94.6218 124.472 94.9772L126.733 95.5325Z" fill="#DDECFF"/>
<path d="M49.2745 57.8889C52.9853 53.1888 55.2 47.2529 55.2 40.7997C55.2 25.5566 42.8431 13.1997 27.6 13.1997C12.3569 13.1997 0 25.5566 0 40.7997C0 56.0428 12.3569 68.3997 27.6 68.3997C32.8314 68.3997 37.7229 66.9442 41.8916 64.4161C45.4212 66.4643 50.8654 66.1594 52.1432 66.0543C52.2435 66.0461 52.3435 66.0516 52.4436 66.0571C52.5272 66.0617 52.6109 66.0663 52.695 66.0629C53.0628 66.048 53.3767 65.7942 53.4823 65.4542C53.5765 65.1507 53.3508 64.8702 53.1103 64.6626C52.1495 63.8333 49.6614 61.3764 49.2745 57.8889Z" fill="#FFC93D"/>
<path d="M27.9823 51.5873C29.1475 54.0649 32.1005 55.1288 34.578 53.9636C37.0556 52.7984 38.1195 49.8454 36.9543 47.3679C35.7892 44.8903 32.8362 43.8264 30.3586 44.9916C27.881 46.1567 26.8171 49.1097 27.9823 51.5873Z" fill="white"/>
<path fill-rule="evenodd" clip-rule="evenodd" d="M22.4795 27.9295C21.6839 28.3036 21.5207 28.9944 22.139 29.9828C22.3769 30.3629 22.4092 30.6136 22.1853 30.9309C19.8856 32.454 17.2807 35.6003 19.3867 41.0886C19.6083 41.666 19.821 42.216 20.0236 42.7401L20.0244 42.7421C22.0575 47.9994 23.0776 50.6372 21.8583 52.0015C20.5854 53.4258 20.9367 53.9479 21.2174 54.365C21.2324 54.3873 21.2472 54.4093 21.2616 54.4311C21.6212 54.9783 22.2592 55.1388 23.3067 54.6462L32.7226 50.218L32.7256 50.2242L42.1949 45.7709C43.2424 45.2783 43.5256 44.6846 43.3336 44.0586C43.3259 44.0336 43.3184 44.0082 43.3108 43.9824L43.3108 43.9823C43.1685 43.5002 42.9904 42.8966 41.0816 42.9686C39.2531 43.0376 37.872 40.5696 35.1194 35.6507C34.8447 35.1598 34.5563 34.6446 34.2525 34.105C31.5452 29.2967 27.78 29.0016 25.1451 29.6452C24.7416 29.6315 24.4417 29.4479 24.3375 29C24.1371 28.1384 23.5404 27.4306 22.4795 27.9295Z" fill="white"/>
<path d="M14.0653 38.2976C12.8403 35.4833 13.5709 32.2394 15.8208 30.1946C16.3024 29.7569 17.0472 29.7873 17.4844 30.2624C17.9217 30.7376 17.8857 31.4776 17.4041 31.9152C15.8946 33.2872 15.4045 35.4633 16.2284 37.3563C16.4859 37.9477 16.2103 38.6378 15.6129 38.8978C15.0156 39.1577 14.3227 38.889 14.0653 38.2976Z" fill="white"/>
<path d="M9.44398 40.0871C7.36325 35.3072 8.8073 29.781 12.8696 26.5746C13.3806 26.1713 14.1211 26.2534 14.5235 26.758C14.926 27.2626 14.838 27.9986 14.327 28.402C11.0988 30.95 9.95122 35.3417 11.6071 39.1458C11.8646 39.7372 11.589 40.4273 10.9917 40.6873C10.3943 40.9472 9.70142 40.6785 9.44398 40.0871Z" fill="white"/>
</g>
<defs>
<radialGradient id="paint0_radial_156_136512" cx="0" cy="0" r="1" gradientUnits="userSpaceOnUse" gradientTransform="translate(151.093 120.099) rotate(-144.752) scale(218.949 199.459)">
<stop stop-color="#DAE8FD"/>
<stop offset="0.454993" stop-color="#EFF6FF"/>
<stop offset="1" stop-color="#F7FAFF" stop-opacity="0"/>
</radialGradient>
<linearGradient id="paint1_linear_156_136512" x1="115.879" y1="159.749" x2="114.262" y2="149.443" gradientUnits="userSpaceOnUse">
<stop stop-color="#CBE1FF"/>
<stop offset="1" stop-color="#E7F1FF"/>
</linearGradient>
<linearGradient id="paint2_linear_156_136512" x1="117.678" y1="-21.5892" x2="141.571" y2="79.8359" gradientUnits="userSpaceOnUse">
<stop offset="0.451977" stop-color="#136EF3"/>
<stop offset="1" stop-color="#C0DAFF"/>
</linearGradient>
<linearGradient id="paint3_linear_156_136512" x1="127.316" y1="174.501" x2="45.5275" y2="63.5795" gradientUnits="userSpaceOnUse">
<stop stop-color="#4390FF"/>
<stop offset="1" stop-color="#87B3F4"/>
</linearGradient>
<linearGradient id="paint4_linear_156_136512" x1="95.5552" y1="247.978" x2="61.4896" y2="72.4332" gradientUnits="userSpaceOnUse">
<stop offset="0.229167" stop-color="#136EF3"/>
<stop offset="0.804706" stop-color="#B4D1FA"/>
</linearGradient>
<clipPath id="clip0_156_136512">
<rect width="180" height="180" fill="white"/>
</clipPath>
</defs>
</svg>
