<svg width="80" height="80" viewBox="0 0 80 80" fill="none" xmlns="http://www.w3.org/2000/svg">
<rect width="80" height="80" fill="#E6F0FF"/>
<path fill-rule="evenodd" clip-rule="evenodd" d="M32.3854 44.3521C32.6528 44.3521 32.8747 44.261 33.051 44.0847C33.2217 43.9083 33.3127 43.6922 33.3127 43.4362V35.6367C33.3127 35.3807 33.2274 35.1588 33.051 34.9825C32.8747 34.8061 32.6528 34.7151 32.3854 34.7151C32.118 34.7151 31.8962 34.8061 31.7198 34.9825C31.5435 35.1588 31.4581 35.3807 31.4581 35.6367V43.4305C31.4581 43.6865 31.5435 43.9083 31.7198 44.0847C31.8962 44.261 32.118 44.3521 32.3854 44.3521ZM30.69 38.4186C30.5137 38.2422 30.2918 38.1512 30.0244 38.1512C29.6262 38.1512 29.3418 38.3389 29.1597 38.7201C28.7729 38.265 28.2381 38.0374 27.5668 38.0374C26.759 38.0374 26.0763 38.3503 25.5302 38.9704C24.9784 39.5962 24.7053 40.3528 24.7053 41.2517C24.7053 42.1505 24.9784 42.9071 25.5302 43.5329C26.082 44.1587 26.759 44.4659 27.5668 44.4659C28.2381 44.4659 28.7729 44.2383 29.1597 43.7832C29.3418 44.1644 29.6319 44.3521 30.0244 44.3521C30.2918 44.3521 30.5137 44.2611 30.69 44.0847C30.8664 43.9084 30.9517 43.6865 30.9517 43.4305V39.0728C30.9517 38.8168 30.8664 38.6006 30.69 38.4186ZM28.7614 42.3326C28.5338 42.6227 28.2266 42.7706 27.8284 42.7706C27.4302 42.7706 27.123 42.6227 26.8954 42.3326C26.6679 42.0424 26.5541 41.6783 26.5541 41.2517C26.5541 40.825 26.6679 40.4609 26.8954 40.1708C27.123 39.8807 27.4302 39.7327 27.8284 39.7327C28.2266 39.7327 28.5338 39.8807 28.7614 40.1708C28.9889 40.4609 29.1027 40.8193 29.1027 41.2517C29.097 41.684 28.9832 42.0424 28.7614 42.3326ZM36.9195 38.0374C37.8411 38.0374 38.5977 38.3446 39.1894 38.9704C39.764 39.5791 40.0484 40.3414 40.0427 41.2517C40.0427 42.1619 39.7583 42.9242 39.1894 43.5329C38.5977 44.153 37.8411 44.4659 36.9195 44.4659C35.9979 44.4659 35.247 44.1587 34.6667 43.5443C34.0808 42.9299 33.7906 42.1619 33.7906 41.2517C33.7906 40.3414 34.0865 39.5734 34.6667 38.959C35.2527 38.3446 35.9979 38.0374 36.9195 38.0374ZM36.9196 42.7706C37.3179 42.7706 37.6251 42.6227 37.8526 42.3326C38.0802 42.0424 38.1939 41.684 38.1883 41.2517C38.1883 40.8193 38.0802 40.4609 37.8526 40.1708C37.6251 39.8807 37.3179 39.7327 36.9196 39.7327C36.5214 39.7327 36.2142 39.8807 35.9867 40.1708C35.7591 40.4609 35.6453 40.825 35.6453 41.2517C35.6453 41.6783 35.7591 42.0424 35.9867 42.3326C36.2142 42.6227 36.5214 42.7706 36.9196 42.7706ZM24.6599 36.5469C24.6599 36.837 24.33 37.4059 23.6757 38.2536L20.3307 42.5885H23.744C24.4836 42.5885 24.8533 42.9014 24.8533 43.5215C24.8533 44.1416 24.4836 44.4545 23.744 44.4545H19.1019C18.1177 44.4545 17.6284 44.0847 17.6284 43.3394C17.6284 43.0834 17.7593 42.7876 18.0153 42.452L21.9691 37.3377H18.88C18.5273 37.3377 18.2542 37.2523 18.0608 37.0874C17.8674 36.9167 17.7707 36.7005 17.7707 36.4331C17.7707 36.1658 17.8674 35.9439 18.0608 35.7789C18.2542 35.6139 18.5273 35.5286 18.88 35.5286H23.3799C24.2332 35.5286 24.6599 35.8699 24.6599 36.5469Z" fill="#CCE1FF"/>
<path fill-rule="evenodd" clip-rule="evenodd" d="M42.9553 33.6284H60.9607C61.5637 33.6284 62.0472 34.112 62.0416 34.715V45.2565C62.0416 45.8538 61.558 46.3431 60.955 46.3431H58.3324C58.4405 46.2407 58.5315 46.0928 58.6055 45.905L61.3532 39.2377C61.4044 39.1068 61.4328 38.9589 61.4328 38.8053C61.4328 38.6062 61.3475 38.4355 61.1768 38.2933C61.0062 38.1511 60.8298 38.0828 60.6421 38.0828C60.2325 38.0828 59.9537 38.2819 59.8001 38.6802L58.5656 41.8375L57.4108 38.6802C57.2629 38.2819 56.9784 38.0828 56.5688 38.0828C56.3811 38.0828 56.2048 38.1511 56.0341 38.2933C55.8634 38.4298 55.7781 38.6005 55.7781 38.8053C55.7781 38.9646 55.8008 39.1068 55.8577 39.2377L57.7123 43.8684L57.041 45.3589C56.9728 45.5296 56.9386 45.6946 56.9386 45.8482C56.9386 46.0416 57.0183 46.2066 57.1662 46.3488H42.9553C42.358 46.3488 41.8688 45.8652 41.8688 45.2622V34.715C41.8688 34.1177 42.3523 33.6284 42.9553 33.6284ZM46.1014 41.5075C46.9661 41.5075 47.6772 41.2458 48.2461 40.7281C48.8434 40.1877 49.145 39.4879 49.1393 38.6175C49.1393 37.7585 48.8434 37.0588 48.2575 36.5184C47.6658 35.9779 46.9206 35.7105 46.0218 35.7105H43.8657C43.2342 35.7105 42.9156 36.0291 42.9156 36.6606V43.4986C42.9156 43.8001 43.001 44.0334 43.1716 44.1983C43.3423 44.3633 43.5642 44.4487 43.8315 44.4487C44.1046 44.4487 44.3208 44.3633 44.4915 44.1983C44.6621 44.0334 44.7475 43.8001 44.7475 43.4986V41.5075H46.1014ZM55.2945 43.419C55.2945 43.675 55.2091 43.8912 55.0328 44.0732C54.8564 44.2496 54.6402 44.3406 54.3729 44.3406C53.9803 44.3406 53.6902 44.1529 53.5081 43.7717C53.1213 44.2268 52.5922 44.4544 51.9266 44.4544C51.1245 44.4544 50.4475 44.1472 49.9014 43.5271C49.3553 42.907 49.0822 42.1504 49.0822 41.2572C49.0822 40.3641 49.3553 39.6074 49.9014 38.9873C50.4475 38.3673 51.1245 38.0601 51.9266 38.0601C52.5979 38.0601 53.1213 38.2876 53.5081 38.7427C53.6902 38.3673 53.9746 38.1738 54.3729 38.1738C54.6402 38.1738 54.8621 38.2649 55.0328 38.4412C55.2034 38.6176 55.2945 38.8337 55.2945 39.0954V43.419ZM45.9933 37.3148H44.7531V39.8976H45.9933C46.3688 39.8976 46.6703 39.7781 46.8978 39.5335C47.1311 39.2889 47.2449 38.9817 47.2449 38.6062C47.2449 38.2307 47.1311 37.9235 46.8978 37.6789C46.6703 37.44 46.3631 37.3148 45.9933 37.3148ZM52.1886 39.744C51.796 39.744 51.4831 39.8862 51.2613 40.1763C51.0394 40.4665 50.9256 40.8249 50.9256 41.2515C50.9256 41.6782 51.0394 42.0366 51.2613 42.3267C51.4831 42.6169 51.796 42.7591 52.1886 42.7591C52.5811 42.7591 52.894 42.6169 53.1158 42.3267C53.3377 42.0366 53.4515 41.6782 53.4515 41.2515C53.4515 40.8249 53.3377 40.4665 53.1158 40.1763C52.894 39.8862 52.5811 39.744 52.1886 39.744Z" fill="#CCE1FF"/>
</svg>
