<svg width="80" height="80" viewBox="0 0 80 80" fill="none" xmlns="http://www.w3.org/2000/svg">
<circle cx="39.999" cy="39.9998" r="36" fill="#E3173C"/>
<path fill-rule="evenodd" clip-rule="evenodd" d="M28.8572 28.3563C29.8335 27.3799 31.4165 27.3799 32.3928 28.3563L52.3927 48.3563C53.369 49.3326 53.369 50.9155 52.3927 51.8918C51.4164 52.8681 49.8335 52.8681 48.8572 51.8918L28.8572 31.8918C27.8809 30.9155 27.8809 29.3326 28.8572 28.3563Z" fill="white"/>
<path fill-rule="evenodd" clip-rule="evenodd" d="M28.8572 51.8915C27.8809 50.9152 27.8809 49.3323 28.8572 48.356L48.8572 28.356C49.8335 27.3797 51.4165 27.3797 52.3928 28.3561C53.3691 29.3324 53.3691 30.9153 52.3928 31.8916L32.3928 51.8915C31.4165 52.8679 29.8335 52.8679 28.8572 51.8915Z" fill="white"/>
<path fill-rule="evenodd" clip-rule="evenodd" d="M39.999 71.4997C57.396 71.4997 71.499 57.3967 71.499 39.9998C71.499 22.6028 57.396 8.49976 39.999 8.49976C22.6021 8.49976 8.49902 22.6028 8.49902 39.9998C8.49902 57.3967 22.6021 71.4997 39.999 71.4997ZM39.999 75.9997C59.8813 75.9997 75.999 59.882 75.999 39.9998C75.999 20.1175 59.8813 3.99976 39.999 3.99976C20.1168 3.99976 3.99902 20.1175 3.99902 39.9998C3.99902 59.882 20.1168 75.9997 39.999 75.9997Z" fill="white"/>
</svg>
