<svg width="80" height="80" viewBox="0 0 80 80" fill="none" xmlns="http://www.w3.org/2000/svg">
<circle cx="39.999" cy="39.9998" r="36" fill="#03CA77"/>
<path fill-rule="evenodd" clip-rule="evenodd" d="M57.1678 28.2325C58.1441 29.2088 58.1441 30.7917 57.1678 31.768L37.1678 51.768C36.219 52.7168 34.6903 52.7474 33.7043 51.8373L23.3043 42.2373C22.2898 41.3007 22.2265 39.7191 23.163 38.7045C24.0995 37.69 25.6812 37.6267 26.6957 38.5632L35.3307 46.534L53.6322 28.2325C54.6085 27.2562 56.1915 27.2562 57.1678 28.2325Z" fill="white"/>
<path fill-rule="evenodd" clip-rule="evenodd" d="M39.999 71.4997C57.396 71.4997 71.499 57.3967 71.499 39.9998C71.499 22.6028 57.396 8.49976 39.999 8.49976C22.6021 8.49976 8.49902 22.6028 8.49902 39.9998C8.49902 57.3967 22.6021 71.4997 39.999 71.4997ZM39.999 75.9997C59.8813 75.9997 75.999 59.882 75.999 39.9998C75.999 20.1175 59.8813 3.99976 39.999 3.99976C20.1168 3.99976 3.99902 20.1175 3.99902 39.9998C3.99902 59.882 20.1168 75.9997 39.999 75.9997Z" fill="white"/>
</svg>
