<svg width="80" height="80" viewBox="0 0 80 80" fill="none" xmlns="http://www.w3.org/2000/svg">
<circle cx="39.999" cy="39.9998" r="36" fill="#FAA828"/>
<path fill-rule="evenodd" clip-rule="evenodd" d="M40 16.875C41.3807 16.875 42.5 17.9943 42.5 19.375V38.766H55.625C57.0057 38.766 58.125 39.8853 58.125 41.266C58.125 42.6467 57.0057 43.766 55.625 43.766H40C38.6193 43.766 37.5 42.6467 37.5 41.266V19.375C37.5 17.9943 38.6193 16.875 40 16.875Z" fill="white"/>
<path fill-rule="evenodd" clip-rule="evenodd" d="M39.999 71.4997C57.396 71.4997 71.499 57.3967 71.499 39.9998C71.499 22.6028 57.396 8.49976 39.999 8.49976C22.6021 8.49976 8.49902 22.6028 8.49902 39.9998C8.49902 57.3967 22.6021 71.4997 39.999 71.4997ZM39.999 75.9997C59.8813 75.9997 75.999 59.882 75.999 39.9998C75.999 20.1175 59.8813 3.99976 39.999 3.99976C20.1168 3.99976 3.99902 20.1175 3.99902 39.9998C3.99902 59.882 20.1168 75.9997 39.999 75.9997Z" fill="white"/>
</svg>
