<svg width="22" height="22" viewBox="0 0 22 22" fill="none" xmlns="http://www.w3.org/2000/svg">
<g id="Group 33">
<path id="Rectangle Copy 2" fill-rule="evenodd" clip-rule="evenodd" d="M4.59967 0.333344C2.24326 0.333344 0.333008 2.2436 0.333008 4.60001V17.4C0.333008 19.7564 2.24326 21.6667 4.59967 21.6667H17.3997C19.7561 21.6667 21.6663 19.7564 21.6663 17.4V4.60001C21.6663 2.2436 19.7561 0.333344 17.3997 0.333344H4.59967Z" fill="url(#paint0_linear_3733_13216)"/>
<g id="Group">
<path id="Vector" d="M19.5091 8.47756H18.3417C18.721 7.87905 18.5965 7.08497 18.0513 6.64053C17.5121 6.19608 16.7298 6.23756 16.238 6.74127L15.7698 7.22127L15.3017 6.74127C14.8098 6.23756 14.0276 6.19608 13.4884 6.64053C12.9491 7.08497 12.8247 7.87905 13.198 8.47756H12.0306C11.7758 8.47756 11.5684 8.6909 11.5684 8.95164V10.4213C11.5684 10.5457 11.6158 10.6702 11.7047 10.759C11.7935 10.8479 11.9121 10.8953 12.0306 10.8953V14.7057C12.0306 14.9131 12.1135 15.1087 12.2558 15.2568C12.398 15.405 12.5935 15.4879 12.795 15.4879H18.7447C18.9461 15.4879 19.1417 15.405 19.2839 15.2628C19.4261 15.1146 19.5091 14.919 19.5091 14.7116V10.9013C19.6335 10.9013 19.7521 10.8539 19.835 10.765C19.9239 10.6761 19.9713 10.5576 19.9713 10.4272V8.95756C19.9772 8.6909 19.7698 8.47756 19.5091 8.47756ZM15.3669 14.1902H14.6261V10.9842H15.3669V14.1902ZM15.3491 10.4865C15.2602 10.5753 15.1417 10.6168 14.9935 10.6168C14.8454 10.6168 14.7328 10.5753 14.6439 10.4865C14.555 10.3976 14.5135 10.285 14.5135 10.1487C14.5135 10.0124 14.555 9.89979 14.6439 9.8109C14.7328 9.72201 14.8513 9.68053 14.9935 9.68053C15.1417 9.68053 15.2543 9.72201 15.3491 9.8109C15.438 9.89979 15.4854 10.0124 15.4854 10.1487C15.4854 10.285 15.438 10.3976 15.3491 10.4865ZM14.5076 8.47756L14.0632 8.02127C13.9624 7.9146 13.921 7.76053 13.9565 7.61831C13.9921 7.47608 14.1047 7.36349 14.241 7.32201C14.3772 7.28053 14.5313 7.32201 14.6321 7.42868L15.4261 8.24053L15.4321 8.24645L15.6513 8.47164H14.5076V8.47756ZM17.2691 11.6183H16.8484V13.1472C16.8484 13.2894 16.878 13.3902 16.9313 13.4553C16.9847 13.5205 17.0735 13.5502 17.1921 13.5502H17.2691V14.1842H17.1565C16.795 14.1842 16.5284 14.1013 16.3565 13.9413C16.1906 13.7813 16.1076 13.5205 16.1076 13.1709V10.9783V10.0065H16.8484V10.9783H17.2691V11.6183ZM17.4884 8.02127L17.0439 8.47756H15.8943L16.1135 8.25238C16.1135 8.24645 16.1195 8.24645 16.1195 8.24645L16.9135 7.42868C17.0735 7.26868 17.3284 7.26868 17.4884 7.42868C17.6484 7.58868 17.6484 7.85534 17.4884 8.02127Z" fill="white"/>
<path id="Vector_2" d="M4.11935 11.3161C4.03639 11.1976 3.92379 11.1087 3.7875 11.0376C3.64527 10.9665 3.50305 10.9309 3.3549 10.9309H2.95194C2.69713 10.9309 2.47787 10.9842 2.28231 11.0968C2.08676 11.2035 1.93268 11.3576 1.82602 11.5531C1.71935 11.7487 1.66602 11.9798 1.66602 12.2346V12.922C1.66602 13.2954 1.77861 13.5976 2.00972 13.8228C2.24083 14.0539 2.53713 14.1665 2.90453 14.1665H3.3549C3.47935 14.1665 3.60972 14.1368 3.74009 14.0716C3.87046 14.0065 3.98305 13.9235 4.07194 13.8228V14.1902C4.07194 14.3976 4.02453 14.5576 3.92972 14.682C3.8349 14.8065 3.70453 14.8657 3.53861 14.8657H2.96972C2.8512 14.8657 2.75639 14.8361 2.67935 14.7709C2.60231 14.7057 2.5549 14.6228 2.54305 14.5161H1.81416C1.83787 14.8124 1.95046 15.0494 2.16972 15.2272C2.38305 15.405 2.64972 15.4998 2.97565 15.4998H3.53861C3.92972 15.4998 4.23787 15.3813 4.46898 15.1442C4.70009 14.9072 4.81268 14.5931 4.81268 14.1902V10.9842H4.11935V11.3161ZM4.07194 12.7561C4.05416 12.9872 3.98305 13.1768 3.85861 13.3191C3.73416 13.4613 3.58009 13.5383 3.39639 13.5383H2.95194C2.78602 13.5383 2.65565 13.4791 2.5549 13.3546C2.45416 13.2302 2.40676 13.0702 2.40676 12.8746V12.2761C2.40676 12.0628 2.46009 11.8909 2.57268 11.7605C2.68527 11.6302 2.8275 11.565 3.0112 11.565H3.45565C3.62157 11.565 3.75787 11.6242 3.87639 11.7428C3.9949 11.8613 4.06009 12.0094 4.07787 12.1991V12.7561H4.07194Z" fill="white"/>
<path id="Vector_3" d="M8.14321 11.085C7.94173 10.9783 7.71061 10.925 7.44987 10.925H6.88691C6.62617 10.925 6.39506 10.9783 6.19358 11.085C5.9921 11.1916 5.83802 11.3398 5.73136 11.5294C5.62469 11.719 5.56543 11.9383 5.56543 12.1872V12.9872C5.56543 13.3664 5.68395 13.6687 5.92691 13.8998C6.16987 14.1309 6.48395 14.2435 6.88099 14.2435H7.43802C7.84099 14.2435 8.16098 14.1309 8.40395 13.8998C8.64691 13.6687 8.76543 13.3664 8.76543 12.9872V12.1872C8.76543 11.9383 8.7121 11.719 8.5995 11.5294C8.49876 11.3398 8.34469 11.1916 8.14321 11.085ZM8.03061 12.9398C8.03061 13.1353 7.97728 13.2953 7.86469 13.4198C7.75802 13.5442 7.60987 13.6035 7.4321 13.6035H6.88691C6.71506 13.6035 6.57876 13.5442 6.46617 13.4198C6.35358 13.2953 6.30617 13.1353 6.30617 12.9398V12.2287C6.30617 12.0331 6.3595 11.8731 6.46617 11.7487C6.57284 11.6242 6.71506 11.565 6.89876 11.565H7.43802C7.6158 11.565 7.76395 11.6242 7.87061 11.7487C7.97728 11.8731 8.03061 12.0331 8.03061 12.2287V12.9398Z" fill="white"/>
<path id="Vector_4" d="M10.2232 10.0064H9.48242V10.9783V13.1709C9.48242 13.5205 9.56538 13.7813 9.73131 13.9413C9.89724 14.1013 10.1639 14.1842 10.5313 14.1842H10.6439V13.5501H10.5669C10.4483 13.5501 10.3595 13.5205 10.3061 13.4553C10.2528 13.3901 10.2232 13.2894 10.2232 13.1472V11.6183H10.6439V10.9842H10.2232V10.0064Z" fill="white"/>
</g>
</g>
<defs>
<linearGradient id="paint0_linear_3733_13216" x1="0.333008" y1="11" x2="21.6663" y2="11" gradientUnits="userSpaceOnUse">
<stop stop-color="#FF5F5F"/>
<stop offset="1" stop-color="#ED1C24"/>
</linearGradient>
</defs>
</svg>
