<svg width="40" height="40" viewBox="0 0 40 40" fill="none" xmlns="http://www.w3.org/2000/svg">
<path fill-rule="evenodd" clip-rule="evenodd" d="M11.3049 3.5049C11.6704 3.9189 11.6311 4.55085 11.2171 4.91638C8.52279 7.29525 6.83301 10.7456 6.83301 14.5834C6.83301 18.4212 8.52279 21.8716 11.2171 24.2505C11.6311 24.616 11.6704 25.2479 11.3049 25.662C10.9393 26.076 10.3074 26.1153 9.89337 25.7497C6.79114 23.0107 4.83301 19.0236 4.83301 14.5834C4.83301 10.1432 6.79114 6.15617 9.89337 3.41714C10.3074 3.0516 10.9393 3.09089 11.3049 3.5049ZM28.6945 3.5049C29.06 3.09089 29.692 3.0516 30.106 3.41714C33.2082 6.15617 35.1663 10.1432 35.1663 14.5834C35.1663 19.0236 33.2082 23.0107 30.106 25.7497C29.692 26.1153 29.06 26.076 28.6945 25.662C28.329 25.2479 28.3683 24.616 28.7823 24.2505C31.4766 21.8716 33.1663 18.4212 33.1663 14.5834C33.1663 10.7456 31.4766 7.29525 28.7823 4.91638C28.3683 4.55085 28.329 3.9189 28.6945 3.5049ZM14.022 7.39154C14.4223 7.01102 14.4383 6.37806 14.0578 5.97778C13.6773 5.57749 13.0443 5.56147 12.644 5.94199C10.4005 8.07472 8.99968 11.1626 8.99968 14.5834C8.99968 18.0043 10.4005 21.0921 12.644 23.2249C13.0443 23.6054 13.6773 23.5894 14.0578 23.1891C14.4383 22.7888 14.4223 22.1558 14.022 21.7753C12.1739 20.0184 10.9997 17.4538 10.9997 14.5834C10.9997 11.713 12.1739 9.14841 14.022 7.39154ZM27.3553 5.94199C26.9551 5.56147 26.3221 5.57749 25.9416 5.97778C25.5611 6.37806 25.5771 7.01102 25.9774 7.39154C27.8255 9.14841 28.9997 11.713 28.9997 14.5834C28.9997 17.4538 27.8255 20.0184 25.9774 21.7753C25.5771 22.1558 25.5611 22.7888 25.9416 23.1891C26.3221 23.5894 26.9551 23.6054 27.3553 23.2249C29.5989 21.0921 30.9997 18.0043 30.9997 14.5834C30.9997 11.1626 29.5989 8.07472 27.3553 5.94199ZM16.5781 9.25796C16.9465 9.66948 16.9115 10.3017 16.4999 10.67C15.4243 11.6327 14.7497 13.0286 14.7497 14.5834C14.7497 16.1382 15.4243 17.5341 16.4999 18.4968C16.9115 18.8652 16.9465 19.4974 16.5781 19.9089C16.2098 20.3204 15.5776 20.3554 15.1661 19.9871C13.6845 18.661 12.7497 16.7307 12.7497 14.5834C12.7497 12.4361 13.6845 10.5058 15.1661 9.17974C15.5776 8.81141 16.2098 8.84643 16.5781 9.25796ZM23.4212 9.25796C23.7895 8.84643 24.4217 8.81141 24.8333 9.17974C26.3149 10.5058 27.2497 12.4361 27.2497 14.5834C27.2497 16.7307 26.3149 18.661 24.8333 19.9871C24.4217 20.3554 23.7895 20.3204 23.4212 19.9089C23.0529 19.4974 23.0879 18.8652 23.4994 18.4968C24.5751 17.5341 25.2497 16.1382 25.2497 14.5834C25.2497 13.0286 24.5751 11.6327 23.4994 10.67C23.0879 10.3017 23.0529 9.66948 23.4212 9.25796ZM22.9163 14.5834C22.9163 16.1943 21.6105 17.5001 19.9997 17.5001C18.3888 17.5001 17.083 16.1943 17.083 14.5834C17.083 12.9726 18.3888 11.6668 19.9997 11.6668C21.6105 11.6668 22.9163 12.9726 22.9163 14.5834ZM18.932 20.6697C19.0724 20.2687 19.4509 20.0001 19.8759 20.0001H20.5232C20.9564 20.0001 21.3404 20.279 21.4743 20.691L22.136 22.727L19.964 24.899L18.1031 23.0381L18.932 20.6697ZM21.1425 26.0775L22.7141 24.5059L24.18 29.0163L24.1306 29.0657L21.1425 26.0775ZM24.1306 31.4227L25.3623 32.6544L26.2409 35.3577C26.4509 36.0038 25.9693 36.6668 25.2899 36.6668H23.3984L21.1425 34.4108L24.1306 31.4227ZM19.964 35.5893L21.0414 36.6668H18.8866L19.964 35.5893ZM18.7855 34.4108L16.5295 36.6668H14.7425C14.0537 36.6668 13.5711 35.9866 13.7987 35.3364L14.8299 32.3901L15.7973 31.4227L18.7855 34.4108ZM18.7855 26.0775L16.099 28.7639L17.492 24.784L18.7855 26.0775ZM19.964 27.256L16.9758 30.2442L19.964 33.2323L22.9521 30.2442L19.964 27.256Z" fill="#CCE1FF"/>
</svg>
