<svg width="37" height="36" viewBox="0 0 37 36" fill="none" xmlns="http://www.w3.org/2000/svg">
<path fill-rule="evenodd" clip-rule="evenodd" d="M18.667 33C26.9513 33 33.667 26.2843 33.667 18C33.667 9.71573 26.9513 3 18.667 3C10.3827 3 3.66699 9.71573 3.66699 18C3.66699 26.2843 10.3827 33 18.667 33ZM26.4208 16.1146C27.0364 15.5603 27.086 14.6118 26.5316 13.9962C25.9772 13.3806 25.0288 13.331 24.4132 13.8854L17.0717 20.4968L12.9016 16.8684C12.2766 16.3246 11.3292 16.3904 10.7854 17.0154C10.2416 17.6404 10.3074 18.5878 10.9324 19.1316L16.1042 23.6316C16.6761 24.1292 17.5293 24.1219 18.0926 23.6146L26.4208 16.1146Z" fill="#03CA77"/>
</svg>
