<svg width="17" height="16" viewBox="0 0 17 16" fill="none" xmlns="http://www.w3.org/2000/svg">
<path fill-rule="evenodd" clip-rule="evenodd" d="M8.66699 15C12.533 15 15.667 11.866 15.667 8C15.667 4.13401 12.533 1 8.66699 1C4.801 1 1.66699 4.13401 1.66699 8C1.66699 11.866 4.801 15 8.66699 15ZM12.3191 7.1574C12.6269 6.88021 12.6517 6.40598 12.3745 6.09818C12.0973 5.79039 11.6231 5.76557 11.3153 6.04276L7.92216 9.09848L6.00951 7.43428C5.69702 7.16238 5.22329 7.19529 4.9514 7.50777C4.67951 7.82026 4.71241 8.29399 5.0249 8.56588L7.43841 10.6659C7.72434 10.9147 8.15096 10.911 8.43261 10.6574L12.3191 7.1574Z" fill="#99A5B2"/>
</svg>
