<svg width="24" height="24" viewBox="0 0 24 24" fill="none" xmlns="http://www.w3.org/2000/svg">
<path fill-rule="evenodd" clip-rule="evenodd" d="M6 2C3.79086 2 2 3.79086 2 6V18C2 20.2091 3.79086 22 6 22H18C20.2091 22 22 20.2091 22 18V6C22 3.79086 20.2091 2 18 2H6ZM18.2066 9.70758C18.5974 9.31731 18.5978 8.68415 18.2076 8.29336C17.8173 7.90258 17.1841 7.90216 16.7934 8.29242L9.9813 15.0954L6.71015 11.7959C6.32131 11.4037 5.68815 11.401 5.29595 11.7899C4.90374 12.1787 4.90101 12.8118 5.28985 13.2041L9.26763 17.2163C9.4548 17.4051 9.70944 17.5115 9.97529 17.5122C10.2411 17.5129 10.4963 17.4076 10.6844 17.2198L18.2066 9.70758Z" fill="#0033C9"/>
</svg>
