<svg width="16" height="17" viewBox="0 0 16 17" fill="none" xmlns="http://www.w3.org/2000/svg">
<path fill-rule="evenodd" clip-rule="evenodd" d="M8 15.293C11.866 15.293 15 12.159 15 8.29297C15 4.42698 11.866 1.29297 8 1.29297C4.13401 1.29297 1 4.42698 1 8.29297C1 12.159 4.13401 15.293 8 15.293ZM11.6521 7.45036C11.9599 7.17318 11.9847 6.69895 11.7075 6.39115C11.4303 6.08336 10.9561 6.05854 10.6483 6.33573L7.25517 9.39145L5.34252 7.72724C5.03003 7.45535 4.5563 7.48826 4.28441 7.80074C4.01251 8.11323 4.04542 8.58696 4.3579 8.85885L6.77141 10.9589C7.05735 11.2076 7.48397 11.204 7.76562 10.9504L11.6521 7.45036Z" fill="#03CA77"/>
</svg>
