<svg width="24" height="25" viewBox="0 0 24 25" fill="none" xmlns="http://www.w3.org/2000/svg">
<path fill-rule="evenodd" clip-rule="evenodd" d="M12 22.2939C17.5228 22.2939 22 17.8168 22 12.2939C22 6.7711 17.5228 2.29395 12 2.29395C6.47715 2.29395 2 6.7711 2 12.2939C2 17.8168 6.47715 22.2939 12 22.2939ZM14.8284 8.0513C15.219 7.66078 15.8521 7.66078 16.2426 8.0513C16.6332 8.44183 16.6332 9.07499 16.2426 9.46552L13.4142 12.2939L16.2426 15.1224C16.6332 15.5129 16.6332 16.1461 16.2426 16.5366C15.8521 16.9271 15.219 16.9271 14.8284 16.5366L12 13.7082L9.17157 16.5366C8.78105 16.9271 8.14788 16.9271 7.75736 16.5366C7.36683 16.1461 7.36683 15.5129 7.75736 15.1224L10.5858 12.2939L7.75736 9.46552C7.36683 9.07499 7.36683 8.44183 7.75736 8.0513C8.14788 7.66078 8.78105 7.66078 9.17157 8.0513L12 10.8797L14.8284 8.0513Z" fill="#99A5B2"/>
</svg>
