<svg width="37" height="36" viewBox="0 0 37 36" fill="none" xmlns="http://www.w3.org/2000/svg">
<path fill-rule="evenodd" clip-rule="evenodd" d="M18.667 33C26.9513 33 33.667 26.2843 33.667 18C33.667 9.71573 26.9513 3 18.667 3C10.3827 3 3.66699 9.71573 3.66699 18C3.66699 26.2843 10.3827 33 18.667 33ZM22.9096 11.636C23.4954 11.0503 24.4452 11.0503 25.031 11.636C25.6167 12.2218 25.6167 13.1716 25.031 13.7574L20.7883 18L25.031 22.2426C25.6167 22.8284 25.6167 23.7782 25.031 24.364C24.4452 24.9497 23.4954 24.9497 22.9096 24.364L18.667 20.1213L14.4243 24.364C13.8386 24.9497 12.8888 24.9497 12.303 24.364C11.7172 23.7782 11.7172 22.8284 12.303 22.2426L16.5457 18L12.303 13.7574C11.7172 13.1716 11.7172 12.2218 12.303 11.636C12.8888 11.0503 13.8386 11.0503 14.4243 11.636L18.667 15.8787L22.9096 11.636Z" fill="#E3173C"/>
</svg>
