<svg width="16" height="16" viewBox="0 0 16 16" fill="none" xmlns="http://www.w3.org/2000/svg">
<path fill-rule="evenodd" clip-rule="evenodd" d="M14.7071 1.29746C14.3166 0.900847 13.6834 0.900847 13.2929 1.29746L8 6.67286L2.70711 1.29746C2.31658 0.900847 1.68342 0.900847 1.29289 1.29746C0.902369 1.69407 0.902369 2.33711 1.29289 2.73372L6.58579 8.10912L1.50778 13.2663C1.11726 13.6629 1.11726 14.3059 1.50778 14.7025C1.89831 15.0992 2.53147 15.0992 2.922 14.7025L8 9.54538L13.078 14.7025C13.4685 15.0992 14.1017 15.0992 14.4922 14.7025C14.8827 14.3059 14.8827 13.6629 14.4922 13.2663L9.41422 8.10912L14.7071 2.73372C15.0976 2.33711 15.0976 1.69407 14.7071 1.29746Z" fill="#001F3E"/>
</svg>
