<svg width="16" height="16" viewBox="0 0 16 16" fill="none" xmlns="http://www.w3.org/2000/svg">
<g id="ic16/general_gift">
<path id="Subtract" fill-rule="evenodd" clip-rule="evenodd" d="M10.45 1C9.4835 1 8.7 1.7835 8.7 2.75V3.1H10.45C11.0299 3.1 11.5 2.6299 11.5 2.05C11.5 1.4701 11.0299 1 10.45 1ZM1 6.13333C1 4.84467 2.04467 3.8 3.33333 3.8H7.3V7.3H1.58333C1.26117 7.3 1 7.03883 1 6.71667V6.13333ZM7.3 8H2.98333C2.66117 8 2.4 8.26117 2.4 8.58333V12.6667C2.4 13.9553 3.44467 15 4.73333 15H7.3V8ZM8.7 15H11.2667C12.5553 15 13.6 13.9553 13.6 12.6667V8.58333C13.6 8.26117 13.3388 8 13.0167 8H8.7V15ZM8.7 7.3V3.8H12.6667C13.9553 3.8 15 4.84467 15 6.13333V6.71667C15 7.03883 14.7388 7.3 14.4167 7.3H8.7ZM7.3 2.75C7.3 1.7835 6.5165 1 5.55 1C4.9701 1 4.5 1.4701 4.5 2.05C4.5 2.6299 4.9701 3.1 5.55 3.1H7.3V2.75Z" fill="#EE748A"/>
</g>
</svg>
