<svg width="16" height="16" viewBox="0 0 16 16" fill="none" xmlns="http://www.w3.org/2000/svg">
<g id="ic16/general_warning">
<path id="Subtract" fill-rule="evenodd" clip-rule="evenodd" d="M6.96335 2.56284C7.45115 1.81239 8.54983 1.81239 9.03762 2.56284L14.7986 11.4259C15.3335 12.2488 14.7429 13.337 13.7615 13.337H2.2395C1.25804 13.337 0.667484 12.2488 1.20237 11.4259L6.96335 2.56284ZM8.00261 5.29665C7.96964 5.29665 7.93666 5.29665 7.89709 5.30329C7.44859 5.35639 7.12541 5.74801 7.18477 6.17945L7.47497 8.52251C7.50795 8.77474 7.73879 8.96723 8.00261 8.96723C8.27303 8.96723 8.49727 8.77474 8.53025 8.52251L8.82045 6.17945C8.82705 6.14626 8.82705 6.11307 8.82705 6.07988C8.82705 5.64844 8.4577 5.29665 8.00261 5.29665ZM8.0021 11.4815C8.45566 11.4815 8.82675 11.1145 8.82675 10.6658C8.82675 10.2172 8.45566 9.85014 8.0021 9.85014C7.54854 9.85014 7.17745 10.2172 7.17745 10.6658C7.17745 11.1145 7.54854 11.4815 8.0021 11.4815Z" fill="#FAA828"/>
</g>
</svg>
