<svg width="24" height="24" viewBox="0 0 24 24" fill="none" xmlns="http://www.w3.org/2000/svg">
<path fill-rule="evenodd" clip-rule="evenodd" d="M5.80117 7.32395H7.06495C7.44854 7.32395 7.75956 7.02027 7.75956 6.64518V2.67901C7.75956 2.30388 7.44854 2 7.06495 2H5.80117C5.41753 2 5.10655 2.30388 5.10655 2.67901V6.64518C5.10655 7.02027 5.41753 7.32395 5.80117 7.32395ZM20.2198 6.64625V4.22692C21.197 4.25573 22 5.04642 22 6.01829V20.1967C22 21.1851 21.1778 22 20.1667 22H3.83332C2.82073 22 2 21.1868 2 20.1967V6.01829C2 5.04642 2.80301 4.25573 3.78024 4.22692V6.64625C3.78024 7.73976 4.68741 8.62096 5.8055 8.62096H7.0834C8.20145 8.62096 9.12065 7.73976 9.12065 6.64625V4.21824H14.8793V6.64625C14.8793 7.73976 15.7986 8.62096 16.9168 8.62096H18.1945C19.3126 8.62096 20.2198 7.73976 20.2198 6.64625ZM18.8334 20.0888C19.2712 20.0888 19.626 19.7417 19.626 19.3138L19.6259 11.9901C19.6259 11.5621 19.2711 11.2149 18.8334 11.2149H5.1309C4.69309 11.2149 4.33832 11.5621 4.33832 11.9901V19.3138C4.33832 19.7417 4.69313 20.0888 5.1309 20.0888H18.8334ZM9.22506 13.0339C9.22506 12.7833 9.01724 12.5804 8.76081 12.5804H7.14076C6.88462 12.5804 6.67676 12.7833 6.67676 13.0339V14.6178C6.67676 14.8687 6.88462 15.0717 7.14076 15.0717H8.76081C9.01724 15.0717 9.22506 14.8687 9.22506 14.6178V13.0339ZM13.2746 13.0339C13.2746 12.7833 13.0667 12.5804 12.8108 12.5804H11.1906C10.9344 12.5804 10.7266 12.7833 10.7266 13.0339V14.6178C10.7266 14.8687 10.9344 15.0717 11.1906 15.0717H12.8108C13.0667 15.0717 13.2746 14.8687 13.2746 14.6178V13.0339ZM16.8587 12.5804C17.1148 12.5804 17.3227 12.7833 17.3227 13.0339V14.6178C17.3227 14.8687 17.1148 15.0717 16.8587 15.0717H15.2387C14.9822 15.0717 14.7744 14.8687 14.7744 14.6178V13.0339C14.7744 12.7833 14.9822 12.5804 15.2387 12.5804H16.8587ZM9.22506 16.9932C9.22506 16.7423 9.01724 16.5395 8.76081 16.5395H7.14076C6.88462 16.5395 6.67676 16.7423 6.67676 16.9932V18.5769C6.67676 18.8276 6.88462 19.0306 7.14076 19.0306H8.76081C9.01724 19.0306 9.22506 18.8275 9.22506 18.5769V16.9932ZM12.8108 16.5395C13.0667 16.5395 13.2746 16.7423 13.2746 16.9932V18.5769C13.2746 18.8275 13.0667 19.0306 12.8108 19.0306H11.1906C10.9344 19.0306 10.7266 18.8276 10.7266 18.5769V16.9932C10.7266 16.7423 10.9344 16.5395 11.1906 16.5395H12.8108ZM17.3227 16.9932C17.3227 16.7423 17.1148 16.5395 16.8589 16.5395H15.2387C14.9822 16.5395 14.7744 16.7423 14.7744 16.9932V18.5769C14.7744 18.8276 14.9822 19.0306 15.2387 19.0306H16.8589C17.1148 19.0306 17.3227 18.8275 17.3227 18.5769V16.9932ZM18.1641 7.32395H16.9003C16.5168 7.32395 16.2057 7.02027 16.2057 6.64518V2.67901C16.2057 2.30388 16.5168 2 16.9003 2H18.1641C18.5475 2 18.8585 2.30388 18.8584 2.67901V6.64518C18.8584 7.02027 18.5474 7.32395 18.1641 7.32395Z" fill="#0033C9"/>
</svg>
