<svg width="17" height="17" viewBox="0 0 17 17" fill="none" xmlns="http://www.w3.org/2000/svg">
<path fill-rule="evenodd" clip-rule="evenodd" d="M11.2 1.29297C10.2335 1.29297 9.45 2.07647 9.45 3.04297V3.39297H11.2C11.7799 3.39297 12.25 2.92287 12.25 2.34297C12.25 1.76307 11.7799 1.29297 11.2 1.29297ZM1.75 6.4263C1.75 5.13764 2.79467 4.09297 4.08333 4.09297H8.05V7.59297H2.33333C2.01117 7.59297 1.75 7.3318 1.75 7.00964V6.4263ZM8.05 8.29297H3.73333C3.41117 8.29297 3.15 8.55414 3.15 8.8763V12.9596C3.15 14.2483 4.19467 15.293 5.48333 15.293H8.05V8.29297ZM9.45 15.293H12.0167C13.3053 15.293 14.35 14.2483 14.35 12.9596V8.8763C14.35 8.55414 14.0888 8.29297 13.7667 8.29297H9.45V15.293ZM9.45 7.59297V4.09297H13.4167C14.7053 4.09297 15.75 5.13764 15.75 6.4263V7.00964C15.75 7.3318 15.4888 7.59297 15.1667 7.59297H9.45ZM8.05 3.04297C8.05 2.07647 7.2665 1.29297 6.3 1.29297C5.7201 1.29297 5.25 1.76307 5.25 2.34297C5.25 2.92287 5.7201 3.39297 6.3 3.39297H8.05V3.04297Z" fill="#EE748A"/>
</svg>
