<svg width="32" height="33" viewBox="0 0 32 33" fill="none" xmlns="http://www.w3.org/2000/svg">
<path fill-rule="evenodd" clip-rule="evenodd" d="M16 2.29395C8.26801 2.29395 2 8.56196 2 16.2939C2 24.0259 8.26801 30.2939 16 30.2939C23.732 30.2939 30 24.0259 30 16.2939C30 8.56196 23.732 2.29395 16 2.29395ZM17.4 17.6939H21.6C22.37 17.6939 23 17.0639 23 16.2939C23 15.5239 22.37 14.8939 21.6 14.8939H17.4V10.6939C17.4 9.92395 16.77 9.29395 16 9.29395C15.23 9.29395 14.6 9.92395 14.6 10.6939V14.8939H10.4C9.63 14.8939 9 15.5239 9 16.2939C9 17.0639 9.63 17.6939 10.4 17.6939H14.6V21.8939C14.6 22.6639 15.23 23.2939 16 23.2939C16.77 23.2939 17.4 22.6639 17.4 21.8939V17.6939Z" fill="#CCD2D8"/>
</svg>
