<svg width="16" height="17" viewBox="0 0 16 17" fill="none" xmlns="http://www.w3.org/2000/svg">
<path fill-rule="evenodd" clip-rule="evenodd" d="M8 15.2939C11.866 15.2939 15 12.1599 15 8.29395C15 4.42795 11.866 1.29395 8 1.29395C4.13401 1.29395 1 4.42795 1 8.29395C1 12.1599 4.13401 15.2939 8 15.2939ZM9.03405 5.31102C9.03405 5.91124 8.52566 6.41143 7.89277 6.41143C7.25988 6.41143 6.75149 5.91124 6.75149 5.31102C6.75149 4.7108 7.25988 4.21061 7.89277 4.21061C8.51529 4.21061 9.03405 4.7108 9.03405 5.31102ZM9.82324 11.8422V12.0769C9.82324 12.2459 9.66761 12.3773 9.48086 12.3773H6.54465C6.34752 12.3773 6.19189 12.2459 6.19189 12.0769V11.8422C6.19189 11.6732 6.34752 11.5418 6.54465 11.5418C6.80404 11.5418 7.01154 11.3634 7.01154 11.1381V8.92242C7.01154 8.6971 6.80404 8.51873 6.54465 8.51873C6.34752 8.51873 6.19189 8.38729 6.19189 8.2183V7.99298C6.19189 7.83338 6.34752 7.70195 6.54465 7.70195H8.65084C8.84797 7.70195 9.0036 7.83338 9.0036 7.99298V11.1381C9.0036 11.3634 9.2111 11.5418 9.48086 11.5418C9.66761 11.5418 9.82324 11.6732 9.82324 11.8422Z" fill="#0033C9"/>
</svg>
