<svg width="32" height="32" viewBox="0 0 32 32" fill="none" xmlns="http://www.w3.org/2000/svg">
<path fill-rule="evenodd" clip-rule="evenodd" d="M16 2C8.26801 2 2 8.26801 2 16C2 23.732 8.26801 30 16 30C23.732 30 30 23.732 30 16C30 8.26801 23.732 2 16 2ZM17.4 17.4H21.6C22.37 17.4 23 16.77 23 16C23 15.23 22.37 14.6 21.6 14.6H17.4V10.4C17.4 9.63 16.77 9 16 9C15.23 9 14.6 9.63 14.6 10.4V14.6H10.4C9.63 14.6 9 15.23 9 16C9 16.77 9.63 17.4 10.4 17.4H14.6V21.6C14.6 22.37 15.23 23 16 23C16.77 23 17.4 22.37 17.4 21.6V17.4Z" fill="#0033C9"/>
</svg>
