<svg width="24" height="24" viewBox="0 0 24 24" fill="none" xmlns="http://www.w3.org/2000/svg">
<path fill-rule="evenodd" clip-rule="evenodd" d="M12.0117 5C8.97374 5 6.38525 6.94091 5.42596 9.65499C5.14989 10.4361 4.29291 10.8455 3.51183 10.5694C2.73076 10.2933 2.32137 9.43633 2.59744 8.65525C3.96714 4.78003 7.66284 2 12.0117 2C15.0836 2 17.8296 3.38713 19.6602 5.56757L21.5389 4.60281C22.3314 4.19584 23.2204 4.95023 22.9477 5.79839L21.2429 11.1022C21.1584 11.3651 20.8768 11.5097 20.6139 11.4252L15.3101 9.7204C14.4619 9.44777 14.3668 8.28577 15.1593 7.8788L16.8925 6.98879C15.633 5.75791 13.9101 5 12.0117 5ZM7.36638 17.1964L8.84334 16.4413C9.63659 16.0357 9.54353 14.8736 8.69586 14.5994L3.39512 12.8851C3.13237 12.8001 2.85049 12.9442 2.76552 13.207L1.05118 18.5077C0.777027 19.3554 1.66461 20.1113 2.45786 19.7058L4.56365 18.6292C6.39109 20.6759 9.04992 21.9654 12.0117 21.9654C16.3606 21.9654 20.0563 19.1853 21.426 15.3101C21.702 14.529 21.2926 13.6721 20.5116 13.396C19.7305 13.1199 18.8735 13.5293 18.5974 14.3104C17.6382 17.0245 15.0497 18.9654 12.0117 18.9654C10.229 18.9654 8.60114 18.2971 7.36638 17.1964Z" fill="#99A5B2"/>
</svg>
