<svg width="48" height="48" viewBox="0 0 48 48" fill="none" xmlns="http://www.w3.org/2000/svg">
<path fill-rule="evenodd" clip-rule="evenodd" d="M24 4C23.7465 4 23.4987 4.07283 23.2877 4.20935C18.434 7.39069 12.9011 9.46008 7.10571 10.2618C6.79899 10.3039 6.51824 10.4523 6.31509 10.6797C6.11193 10.907 6.00005 11.1981 6 11.4992V22.749C6 32.4739 11.9349 39.5738 23.5371 43.9162C23.835 44.0279 24.165 44.0279 24.4629 43.9162C36.0677 39.5738 42 32.4764 42 22.749V11.4992C42 11.1984 41.8885 10.9077 41.6859 10.6804C41.4833 10.4531 41.2031 10.3045 40.8969 10.2618C35.1006 9.46045 29.5668 7.39104 24.7123 4.20935C24.5013 4.07283 24.2535 4 24 4ZM32.5384 21.4862C33.3592 20.747 33.4253 19.4824 32.6862 18.6616C31.947 17.8408 30.6824 17.7747 29.8616 18.5138L22.2938 25.3291L18.1128 21.6912C17.2795 20.9661 16.0162 21.0539 15.2912 21.8872C14.5661 22.7205 14.6539 23.9838 15.4872 24.7088L21.0038 29.5088C21.7663 30.1723 22.9039 30.1625 23.655 29.4862L32.5384 21.4862Z" fill="url(#paint0_linear_683_12024)" fill-opacity="0.94"/>
<defs>
<linearGradient id="paint0_linear_683_12024" x1="-7.75851" y1="4.74399" x2="22.8827" y2="44.7907" gradientUnits="userSpaceOnUse">
<stop stop-color="#80FF6B"/>
<stop offset="1" stop-color="#00DC73"/>
</linearGradient>
</defs>
</svg>
