<svg width="24" height="24" viewBox="0 0 24 24" fill="none" xmlns="http://www.w3.org/2000/svg">
<path fill-rule="evenodd" clip-rule="evenodd" d="M2 11V11.5714V17C2 18.1046 2.89543 19 4 19H6C7.65685 19 9 17.6569 9 16V14C9 12.3431 7.65685 11 6 11H4.02124C4.31335 7.08534 7.58208 4 11.5714 4H12C16.0796 4 19.446 7.05369 19.9381 11H18C16.3431 11 15 12.3431 15 14V16C15 17.6569 16.3431 19 18 19H19.7324C19.3866 19.5978 18.7403 20 18 20H12C11.4477 20 11 20.4477 11 21C11 21.5523 11.4477 22 12 22H18C20.2091 22 22 20.2091 22 18V17V12V11H21.9506C21.4489 5.94668 17.1853 2 12 2H11.5714C6.47712 2 2.31236 5.97987 2.01678 11H2Z" fill="#99A5B2"/>
</svg>
