<svg width="20" height="20" viewBox="0 0 20 20" fill="none" xmlns="http://www.w3.org/2000/svg">
<path fill-rule="evenodd" clip-rule="evenodd" d="M9.99984 2.29166C5.71331 2.29166 2.2915 5.74354 2.2915 9.99999C2.2915 10.3452 2.01168 10.625 1.6665 10.625C1.32133 10.625 1.0415 10.3452 1.0415 9.99999C1.0415 5.05644 5.0197 1.04166 9.99984 1.04166C12.9646 1.04166 15.1847 2.27999 16.6512 3.50339C17.0607 3.845 17.413 4.18653 17.7082 4.50167V2.13332C17.7082 1.78815 17.988 1.50832 18.3332 1.50832C18.6783 1.50832 18.9582 1.78815 18.9582 2.13332V6.29999C18.9582 6.64517 18.6783 6.92499 18.3332 6.92499H14.6332C14.288 6.92499 14.0082 6.64517 14.0082 6.29999C14.0082 5.95481 14.288 5.67499 14.6332 5.67499H17.0826C16.7715 5.31448 16.3606 4.88879 15.8505 4.46325C14.54 3.36999 12.5934 2.29166 9.99984 2.29166ZM18.3332 9.37499C18.6783 9.37499 18.9582 9.65481 18.9582 9.99999C18.9582 14.9452 14.945 18.9583 9.99984 18.9583C7.48279 18.9583 5.48691 17.6915 4.15078 16.4796C3.79612 16.1579 3.48396 15.8366 3.2165 15.5379V17.8667C3.2165 18.2118 2.93668 18.4917 2.5915 18.4917C2.24633 18.4917 1.9665 18.2118 1.9665 17.8667V13.7C1.9665 13.3548 2.24633 13.075 2.5915 13.075H6.35817C6.70335 13.075 6.98317 13.3548 6.98317 13.7C6.98317 14.0452 6.70335 14.325 6.35817 14.325H3.82242C4.12308 14.6905 4.51519 15.1225 4.99056 15.5537C6.2086 16.6585 7.91689 17.7083 9.99984 17.7083C14.2547 17.7083 17.7082 14.2548 17.7082 9.99999C17.7082 9.65481 17.988 9.37499 18.3332 9.37499Z" fill="white"/>
</svg>
