<?xml version="1.0" encoding="UTF-8"?>
<svg xmlns="http://www.w3.org/2000/svg" fill="none" viewBox="8.08 5.18 92.85 46.09">
<title>EA Sports FC logo (2023)</title>
<path d="M31.123 7.00647C19.4067 7.00647 9.90503 16.508 9.90503 28.2243C9.90503 39.9405 19.4067 49.4421 31.123 49.4421C42.8394 49.4421 52.341 39.9405 52.341 28.2243C52.341 16.508 42.8394 7.00647 31.123 7.00647Z" fill="white"/>
<path d="M54.1819 8.06403L59.6631 17.5305L65.1795 8.06403H54.1819Z" fill="black"/>
<path d="M84.054 25.2264L77.5501 36.3934L76.5684 34.6988L88.5594 14.1237H90.5287L85.0416 23.5376H91.9603L100.93 8.06403C100.93 8.06403 89.4593 8.06403 87.5777 8.06403C85.1409 8.06403 83.7092 10.3313 83.7092 10.3313C83.7092 10.3313 70.941 32.2562 70.9294 32.2562C70.2749 33.5768 70.2749 35.7272 70.941 36.966C70.9527 36.9894 77.5559 48.3784 77.5559 48.3784L90.9845 25.2147H84.054V25.2264Z" fill="black"/>
<path d="M66.0442 21.8664H75.0141L78.5553 15.7833H69.5796L70.5671 14.0887H79.5429L83.0548 8.06403C83.0548 8.06403 72.1566 8.06403 69.825 8.06403C67.3006 8.06403 65.8222 10.343 65.8222 10.343L60.6448 19.2251L64.1042 25.1914L66.0442 21.8664Z" fill="black"/>
<path d="M23.994 32.7412H22.498V34.6754H23.9998C24.1284 34.6754 24.2336 34.6287 24.3154 34.5293C24.3972 34.43 24.4381 34.3131 24.4381 34.1612V33.2496C24.4381 33.0977 24.3972 32.9808 24.3154 32.8815C24.2336 32.788 24.1226 32.7412 23.994 32.7412Z" fill="black"/>
<path d="M34.6995 32.7412H33.2561V34.5235H34.6995C34.828 34.5235 34.9332 34.4767 35.0092 34.3832C35.091 34.2897 35.126 34.167 35.126 34.0209V33.2496C35.126 33.1035 35.091 32.9808 35.0092 32.8815C34.9274 32.788 34.8222 32.7412 34.6995 32.7412Z" fill="black"/>
<path d="M29.2708 32.7412H28.2132C28.0729 32.7412 27.9677 32.788 27.8859 32.8873C27.8041 32.9866 27.769 33.1035 27.769 33.2554V36.446C27.769 36.5921 27.8099 36.709 27.8859 36.8083C27.9677 36.9076 28.0729 36.9602 28.2132 36.9602H29.2708C29.3994 36.9602 29.5046 36.9076 29.5864 36.8083C29.674 36.709 29.7149 36.5921 29.7149 36.446V33.2496C29.7149 33.1035 29.674 32.9808 29.5864 32.8815C29.5046 32.788 29.3994 32.7412 29.2708 32.7412Z" fill="black"/>
<path d="M31.1229 5.18317C18.3957 5.18317 8.07593 15.5028 8.07593 28.23C8.07593 40.9572 18.3957 51.2768 31.1229 51.2768C43.8502 51.2768 54.17 40.9572 54.17 28.23C54.17 15.5028 43.8502 5.18317 31.1229 5.18317ZM22.5095 15.8476H34.3544L32.5371 18.7226L20.6922 18.7284L22.5095 15.8476ZM20.1078 36.633C20.1078 37.0011 19.9793 37.3166 19.728 37.5679C19.4709 37.825 19.1553 37.9594 18.793 37.9594H17.2269C16.8588 37.9594 16.5433 37.8367 16.2978 37.5854C16.0465 37.34 15.9238 37.0303 15.9238 36.6563V36.0369H16.888L17.0283 36.6096C17.0925 36.8433 17.2562 36.966 17.5191 36.966H18.5768C18.7054 36.966 18.8164 36.9193 18.8982 36.8199C18.9742 36.7264 19.0151 36.5979 19.0151 36.4576V35.7798C19.0151 35.4467 18.869 35.2773 18.5768 35.2773H17.2503C16.888 35.2773 16.5725 35.1487 16.3095 34.8916C16.0524 34.6345 15.9297 34.3189 15.9297 33.9508V33.0509C15.9297 32.6886 16.0582 32.3789 16.3095 32.1218C16.5725 31.8646 16.888 31.7361 17.2503 31.7361H18.793C19.1553 31.7361 19.465 31.8588 19.7163 32.1042C19.9676 32.3555 20.0903 32.6594 20.0903 33.0333V33.5943H19.1378L18.9917 33.0859C18.9157 32.8464 18.7521 32.7236 18.5067 32.7236H17.4665C17.3321 32.7236 17.2211 32.7704 17.1451 32.8697C17.0575 32.9691 17.0224 33.0918 17.0224 33.2379V33.7638C17.0224 34.091 17.1685 34.2546 17.4665 34.2546H18.793C19.1495 34.2546 19.465 34.3832 19.7222 34.6462C19.9793 34.9091 20.1078 35.2188 20.1078 35.5753V36.633ZM25.5423 34.354C25.5423 34.7221 25.4138 35.0318 25.1567 35.2889C24.8937 35.5461 24.5782 35.6746 24.2159 35.6746H22.4978V37.9594H21.3993V31.7361H24.2159C24.5782 31.7361 24.8937 31.8646 25.1567 32.1218C25.4138 32.3789 25.5423 32.6886 25.5423 33.045V34.354ZM30.8132 36.6213C30.8132 37.0011 30.6905 37.3108 30.4217 37.5679C30.1588 37.825 29.8549 37.9594 29.4867 37.9594H28.0025C27.6343 37.9594 27.3188 37.8309 27.0617 37.5679C26.8046 37.3108 26.6701 37.0011 26.6701 36.6213V33.045C26.6701 32.6886 26.8046 32.373 27.0617 32.1218C27.3188 31.8646 27.6343 31.7361 28.0025 31.7361H29.4867C29.8549 31.7361 30.1646 31.8646 30.4217 32.1218C30.6847 32.373 30.8132 32.6886 30.8132 33.0509V36.6213ZM31.0879 30.2518L16.0816 30.2577L19.728 24.4901H17.0516L18.8748 21.6093H30.036L28.2128 24.4901H23.2108L21.3642 27.3768H29.4166L36.7795 15.7482L45.9481 30.2518H42.4887L40.6655 27.371H35.2485L37.0717 24.4843H38.8481L36.7795 21.2119L31.0879 30.2518ZM35.3128 37.9594L34.3018 35.5227H33.2558V37.9594H32.1573V31.7361H34.9096C35.2777 31.7361 35.5933 31.8646 35.8445 32.1218C36.1017 32.3789 36.2302 32.6886 36.2302 33.045V34.1319C36.2302 34.4124 36.1543 34.6695 35.9965 34.8974C35.8329 35.1195 35.6283 35.2831 35.3887 35.3883L36.4815 37.9594H35.3128ZM41.2031 32.7412H39.6078V37.9594H38.5092V32.7412H36.9256V31.7361H41.2089V32.7412H41.2031ZM46.1935 36.633C46.1935 37.0011 46.0649 37.3166 45.8078 37.5679C45.5449 37.825 45.2352 37.9594 44.867 37.9594H43.3126C42.9386 37.9594 42.6348 37.8367 42.3835 37.5854C42.1381 37.34 42.0095 37.0303 42.0095 36.6563V36.0369H42.9678L43.1139 36.6096C43.1841 36.8433 43.3418 36.966 43.6048 36.966H44.6625C44.7969 36.966 44.9079 36.9193 44.9897 36.8199C45.0657 36.7264 45.1066 36.5979 45.1066 36.4576V35.7798C45.1066 35.4467 44.9605 35.2773 44.6625 35.2773H43.336C42.9678 35.2773 42.6523 35.1487 42.401 34.8916C42.1439 34.6345 42.0095 34.3189 42.0095 33.9508V33.0509C42.0095 32.6886 42.1439 32.3789 42.401 32.1218C42.6523 31.8646 42.9678 31.7361 43.336 31.7361H44.8729C45.241 31.7361 45.5507 31.8588 45.802 32.1042C46.0532 32.3555 46.176 32.6594 46.176 33.0333V33.5943H45.2176L45.0715 33.0859C44.9956 32.8464 44.8319 32.7236 44.5865 32.7236H43.5405C43.4061 32.7236 43.2951 32.7704 43.2191 32.8697C43.1373 32.9691 43.0964 33.0918 43.0964 33.2379V33.7638C43.0964 34.091 43.2483 34.2546 43.5405 34.2546H44.867C45.2293 34.2546 45.539 34.3832 45.7961 34.6462C46.0649 34.9091 46.1935 35.2188 46.1935 35.5753V36.633ZM46.8655 32.04H46.6318V32.5366H46.5149V32.04H46.2811V31.9348H46.8655V32.04ZM47.5667 32.5425V32.1685C47.5667 32.151 47.5667 32.1334 47.5726 32.1042C47.5609 32.1276 47.5609 32.151 47.5434 32.1685L47.3505 32.4665H47.333L47.1343 32.1685C47.1226 32.151 47.1109 32.1276 47.0992 32.1101C47.0992 32.1334 47.1109 32.1568 47.1109 32.1744V32.5483H47.0116V31.9465H47.1109L47.3447 32.3088L47.5843 31.9465H47.6778V32.5483H47.5667V32.5425Z" fill="black"/>
</svg>