<svg xmlns="http://www.w3.org/2000/svg" viewBox="0 0 317.18 44.9"><title>Free Fire logo - Brandlogos.net</title><path d="M454.66,363c1.09-.3,1.85-1.28,3-1.45,0,2.32,0,4.65,0,7-.81,2.09-1.14,4.32-1.85,6.44-1.29,5-2.58,10-3.94,14.93-.11.47-.32,1.13.25,1.38.95.11,1.91,0,2.86.05a4.48,4.48,0,0,1-.43,1.8c-5.75,0-11.5,0-17.25,0a6.67,6.67,0,0,1,.73-1.8c1,0,1.93,0,2.9,0,.63-.47.82-1.34,1.5-1.78,1.62-1.18,3.19-2.45,4.76-3.7,0-.22,0-.45,0-.67q-2.09,0-4.18,0c0-.77.6-1.25,1.12-1.7,1.37-1.07,2.73-2.16,4.13-3.19.33-.19.35-.57.4-.9a35.21,35.21,0,0,0-4.08-.13c0-1,1-1.41,1.61-1.94,1.36-1,2.76-2.05,4-3.21l.08-.6c-1,0-2,0-3,0-.48.05-1.05-.42-.78-.93a21.08,21.08,0,0,1,5-7.44A9.3,9.3,0,0,1,454.66,363Z" transform="translate(-225.41 -361.55)" style="fill:#ffb900"/><path d="M440.48,396.89c.08-.57.37-1.34,1.08-1.28,2.65,0,5.3,0,7.95,0,0,1.53-.71,3-.93,4.46-.45,1.44-.79,2.92-1.17,4.39a2.44,2.44,0,0,1-2.39,2c-2.34,0-4.69,0-7,0C438.78,403.22,439.64,400.06,440.48,396.89Z" transform="translate(-225.41 -361.55)" style="fill:#ffb900"/><path d="M234.7,370.78h37q-3.14,3.82-6.32,7.63c-.44.48-.86,1.17-1.6,1.06q-9.39,0-18.77,0a3.07,3.07,0,0,0-3.11,3.4,1.66,1.66,0,0,0,1.3,1.33,20.52,20.52,0,0,0,2.28,0h22.17c-2.06,2.62-4.31,5.08-6.36,7.71-.44.47-.88,1.14-1.62,1-6.9,0-13.8,0-20.7,0-.51,1.33-.63,2.77-1.1,4.12s-.63,2.82-1.08,4.19c-.6,1.69-.77,3.5-1.47,5.16h-9.94a13.67,13.67,0,0,1,.64-2.93c.44-1.25.61-2.56,1-3.83.6-1.83.86-3.75,1.5-5.57.39-2,1.14-4,1.54-6,.19-.79.51-1.54.72-2.33.28-1,.4-2.13.77-3.15.52-1.41.68-2.93,1.16-4.35s.61-2.69,1.05-4C234.16,373.08,234.41,371.92,234.7,370.78Z" transform="translate(-225.41 -361.55)"/><path d="M276.71,371.67c.35-.37.68-1,1.27-.9,9.21,0,18.42,0,27.63,0a3.43,3.43,0,0,1,3.09,3.5,10.44,10.44,0,0,1-.66,3.79c-.53,1.53-.7,3.16-1.26,4.68A48.48,48.48,0,0,1,305,389a7.73,7.73,0,0,1-6.44,4.12c-2.15,0-4.31,0-6.46,0,2.46,4.52,5.24,8.85,7.81,13.31-3.64,0-7.27,0-10.9,0a42.18,42.18,0,0,1-2.7-4.37c-1.86-3-3.57-6.12-5.46-9.12q-7.16.07-14.32,0a4.55,4.55,0,0,1,.57-1c2.11-2.59,4.21-5.2,6.38-7.74,6.68.06,13.37,0,20.06,0a3.47,3.47,0,0,0,2.87-1.37,3,3,0,0,0,.36-2.38,1.6,1.6,0,0,0-1.41-.87c-8.33-.06-16.66.08-25,0a21.88,21.88,0,0,1,2.13-2.77C273.86,375.06,275.34,373.41,276.71,371.67Z" transform="translate(-225.41 -361.55)"/><path d="M314.6,370.75c12.32.06,24.63,0,37,0A17.23,17.23,0,0,1,350,372.7c-1.68,2-3.29,4-5,6-.39.43-.8,1-1.47.89-5.94,0-11.88,0-17.83,0a5.3,5.3,0,0,0-2.38.27,2.84,2.84,0,0,0-1.6,2.88c0,1,1.06,1.5,1.91,1.48h16.71a34.25,34.25,0,0,1-2.63,3.21c-1.26,1.56-2.55,3.09-3.81,4.66-.36.41-.72,1-1.34.88-3.82,0-7.63,0-11.45,0a2.77,2.77,0,0,0-2.9,2.81c0,.56.07,1.32.66,1.58a8.15,8.15,0,0,0,2.95.29h22.62c-.15,2.11-1,4.07-1.44,6.13a10.57,10.57,0,0,1-.88,2.65c-12.32,0-24.65,0-37,0,.46-2.53,1.28-5,1.85-7.48.69-2.13,1.1-4.34,1.76-6.48.43-2,1.14-3.87,1.52-5.86.21-1.11.67-2.15.88-3.26.29-1.6,1-3.11,1.26-4.71.22-1.3.8-2.5,1-3.8A17.85,17.85,0,0,1,314.6,370.75Z" transform="translate(-225.41 -361.55)"/><path d="M356.09,370.78c12.42,0,24.85,0,37.27,0-2.06,2.25-3.86,4.71-5.88,7-.58.63-1,1.54-1.9,1.79a24.52,24.52,0,0,1-4.79-.11H366.84a3.5,3.5,0,0,0-2.95,1.48,2.91,2.91,0,0,0-.32,2.37,1.93,1.93,0,0,0,1.67.93c5.64,0,11.28,0,16.92,0-1.47,1.91-3.1,3.68-4.61,5.56a30.59,30.59,0,0,1-2.73,3.1,5.92,5.92,0,0,1-1.35.09c-3.66,0-7.31,0-11,0a2.71,2.71,0,0,0-2.11,1.37,2.17,2.17,0,0,0,0,2.84,3,3,0,0,0,1.85.47h21a22.92,22.92,0,0,1,3.17.1c-.81,1.89-1.08,3.93-1.72,5.87a23.41,23.41,0,0,0-.65,2.79c-12.37,0-24.75,0-37.13,0-.05-1.27.67-2.39.85-3.63.31-1.81,1-3.52,1.34-5.32,1.5-5.53,2.87-11.1,4.39-16.63C354.33,377.46,355.53,374.2,356.09,370.78Z" transform="translate(-225.41 -361.55)"/><path d="M406.09,371.43c.1-.36.3-.82.76-.71q15.19,0,30.38,0,3,.08,6,0a7.83,7.83,0,0,1-1.51,2c-1.3,1.6-2.67,3.13-3.9,4.78-.7.74-1.21,2-2.37,2-6.41,0-12.81,0-19.22,0-1.8,0-3.34,2.39-2.2,3.94.43.62,1.29.63,2,.65q11.65,0,23.31,0c-1.77,2.36-3.78,4.53-5.6,6.85a7.75,7.75,0,0,1-1.72,1.85c-4.64.09-9.29,0-13.93,0-2.42,0-4.84.06-7.25,0-.73,1.7-.89,3.57-1.5,5.32-.47,1.36-.67,2.79-1.14,4.14s-.56,2.75-1.13,4c-3.32,0-6.64,0-10,0,0-1.35.67-2.54.9-3.84s.66-2.43,1-3.64c.47-2.29,1.24-4.49,1.73-6.78.69-1.9.89-3.93,1.56-5.83.49-2.13,1.14-4.21,1.6-6.34C404.6,377.12,405.4,374.29,406.09,371.43Z" transform="translate(-225.41 -361.55)"/><path d="M469.67,370.78c8.85-.1,17.69.05,26.53,0A3.61,3.61,0,0,1,500,374.5a5.7,5.7,0,0,1-.25,2c-.47,1.33-.7,2.74-1.08,4.1-.87,2.58-1.4,5.25-2.2,7.84a7.19,7.19,0,0,1-4.52,4.17c-1.56.63-3.26.43-4.9.45-1.23,0-2.46,0-3.69,0a23.09,23.09,0,0,0,1.7,3.05c2,3.45,4.06,6.83,6.1,10.24-3.43,0-6.86,0-10.28,0-.29,0-.64,0-.83-.23a14.51,14.51,0,0,1-1.23-2c-2.11-3.6-4.31-7.14-6.37-10.77-.14-.19-.25-.52-.54-.48-4.54,0-9.07,0-13.61,0a2.6,2.6,0,0,1,.65-1.76c1.92-2.33,3.8-4.71,5.79-7,6.76,0,13.51,0,20.27,0a3.29,3.29,0,0,0,3.06-2,5.58,5.58,0,0,0,0-1.64,2.12,2.12,0,0,0-1.92-1.08H474.7a15.6,15.6,0,0,1-3.18,0c-3-.05-6.08,0-9.12,0a3.44,3.44,0,0,1,.63-1.81c.9-1.14,1.84-2.25,2.8-3.35s1.65-2.14,2.58-3.12A1.56,1.56,0,0,1,469.67,370.78Z" transform="translate(-225.41 -361.55)"/><path d="M505.86,370.75c12.24.06,24.48,0,36.72,0a15.91,15.91,0,0,1-2,2.64c-1.61,2-3.35,4-4.94,6-1.57,0-3.14.26-4.71.18-4.72-.3-9.45-.08-14.17-.16a3.94,3.94,0,0,0-3.21,1.22,3,3,0,0,0-.49,2.51c.25.89,1.3,1.06,2.09,1.06H531.6c-1,1.43-2.3,2.65-3.35,4s-2.08,2.5-3.07,3.79c-.35.41-.68,1-1.32.9H512.19a3.14,3.14,0,0,0-2.86,2.58,1.92,1.92,0,0,0,1.93,2.09c8.15.05,16.3,0,24.44,0a9.4,9.4,0,0,1-.58,2.76c-.44,1.31-.58,2.69-1,4a14.86,14.86,0,0,0-.54,2c-12.44,0-24.89,0-37.33,0a38.58,38.58,0,0,0,1.34-4.69c.5-1.51.77-3.09,1.29-4.6s.6-2.88,1.11-4.27.61-3,1.16-4.44.57-2.85,1.08-4.22.59-2.54,1-3.79a32.19,32.19,0,0,0,.9-3.46c.19-1.11.68-2.13.9-3.23A10.11,10.11,0,0,1,505.86,370.75Z" transform="translate(-225.41 -361.55)"/></svg>