<svg width="65" height="25" viewBox="0 0 65 25" fill="none" xmlns="http://www.w3.org/2000/svg">
<path fill-rule="evenodd" clip-rule="evenodd" d="M57.5332 0.247431H65V5.32689H60.0874C57.2549 5.32689 56.2889 9.66138 56.2889 9.66138L59.9567 9.62753L57.9918 14.9102H54.7822L53.276 19.4366H65V24.5524H46.1594C46.1594 24.5524 50.0996 11.2357 52.0317 5.32689C53.8148 -0.12778 57.5332 0.247431 57.5332 0.247431ZM50.8696 0.241943H32.029L33.9261 5.32255H38.9634V24.5524H43.9352V5.32255H48.907L50.8696 0.241943ZM37.6812 24.5524L31.4645 5.32255C31.4645 5.32255 29.9442 0.241943 26.194 0.241943H23.1532L21.6667 5.32255H23.3109C22.8662 5.32255 25.0094 5.08771 25.9237 6.88066C26.4764 7.9645 27.0724 9.62416 27.0724 9.62416H23.1532L25.1805 14.9081H28.6267L31.7349 24.5524H37.6812ZM18.8752 5.31909L20.3445 0.241943H9.05763C5.64265 0.241943 2.75744 2.18252 1.31043 5.31909C-0.166592 8.52057 -0.713315 15.3037 1.37721 19.4226C4.0976 24.7822 10.3059 24.5818 11.5844 24.5405C11.6631 24.538 11.7231 24.536 11.7625 24.536C16.0301 24.536 18.0672 23.7279 19.2091 22.7848C21.077 21.2421 22.1144 18.6508 21.4799 14.8644C20.5894 9.55017 15.9368 9.58387 15.9368 9.58387H11.7291V14.9321H13.1984C13.2907 14.9321 13.3824 14.9316 13.4732 14.9312C14.9209 14.9238 16.1478 14.9175 16.2037 16.8276C16.2705 19.1066 15.6695 19.4224 11.7625 19.4224C6.55316 19.4224 5.15491 16.3381 4.98368 13.0364C4.64632 6.53166 7.37204 5.29236 11.0612 5.31909C15.1713 5.34882 18.8752 5.31909 18.8752 5.31909Z" fill="#E3292B"/>
</svg>
